<mxfile host="65bd71144e">
    <diagram name="Banking System Class Diagram" id="0">
        <mxGraphModel dx="4063" dy="-567" grid="1" gridSize="10" guides="1" tooltips="1" connect="1" arrows="1" fold="1" page="1" pageScale="1" pageWidth="827" pageHeight="1169" math="0" shadow="0">
            <root>
                <mxCell id="0"/>
                <mxCell id="1" parent="0"/>
                <UserObject label="" mermaidData="{&#10;  &quot;data&quot;: &quot;classDiagram\n    class User {\n        -citizen_id: str\n        -name: str\n        -accounts: list&lt;Account&gt;\n        +citizen_id(): str\n        +full_name(): str\n        +accounts(): list\n        +add_account(account: Account): void\n        +search_account(account_number: str): Account | None\n    }\n\n    class Account {\n        -account_number: str\n        -owner: User\n        -balance: float\n        -transactions: list&lt;Transaction&gt;\n        +account_number(): str\n        +owner(): User\n        +amount(): float\n        +transactions(): list&lt;Transaction&gt;\n        +amount(balance: float): void\n        +add_transaction(transaction: Transaction): void\n        +transfer(amount: float, receiver: Account): str\n    }\n\n    class SavingsAccount {\n        +interest_rate: float\n        +type: str\n        +card: Card | None\n        +card(card: Card | None): void\n    }\n\n    class FixDepositAccount {\n        +interest_rate: float\n        +type: str\n    }\n\n    class Card {\n        -card_no: str\n        -account: Account\n        -pin: str\n        +account(): Account\n        +pin(): str\n        +card_no(): str\n        +amount(): float\n        +account_no(): str\n    }\n\n    class ATMCard {\n        +FEE: int\n    }\n\n    class DebitCard {\n        +FEE: int\n    }\n\n    class ATM {\n        -machine_id: str\n        -atm_balance: float\n        +machine_id(): str\n        +atm_balance(): float\n        +insert_card(card: Card, pin: str): str\n        +deposit(account: Account, amount: float): None | str\n        +withdraw(account: Account, amount: float): str | None\n        +transfer(sender: Account, receiver: Account, amount: float): str | None\n    }\n\n    class Transaction {\n        -transaction_type: str\n        -amount: float\n        -machine_id: str\n        -destination: str\n        -source: str\n        +__str__(): str\n    }\n\n    class Seller {\n        -seller_id: str\n        -name: str\n        -edc: list&lt;EDCMachine&gt;\n        +seller_id(): str\n        +name(): str\n        +edc(): list\n        +add_edc(edc: EDCMachine): void\n        +search_edc_from_no(edc_no: str): EDCMachine\n        +paid(card: Card, amount: float, seller_account: Account): str\n    }\n\n    class EDCMachine {\n        -edc_id: str\n        -seller: Seller\n        +edc_id(): str\n        +seller(): Seller\n        +paid(card: Card, amount: float, seller_account: Account): str\n    }\n\n    class Bank {\n        -name: str\n        -users: list&lt;User&gt;\n        -atms: list&lt;ATM&gt;\n        -sellers: list&lt;Seller&gt;\n        +name(): str\n        +add_user(user: User): void\n        +add_atm(atm: ATM): void\n        +add_seller(seller: Seller): void\n        +search_user_from_id(citizen_id: str): User\n        +search_atm_machine(machine_id: str): ATM\n        +search_account_from_card(card_no: str): Account\n        +search_account_from_account_no(account_no: str): Account\n        +search_seller(name: str): Seller\n    }\n\n    %% Relationships\n    User \&quot;1\&quot; --&gt; \&quot;0..*\&quot; Account\n    Account \&quot;1\&quot; --&gt; \&quot;1\&quot; User\n    Account \&quot;1\&quot; --&gt; \&quot;0..*\&quot; Transaction\n    Account \&quot;1\&quot; --&gt; \&quot;0..1\&quot; Card\n    SavingsAccount --|&gt; Account\n    FixDepositAccount --|&gt; Account\n    Card --|&gt; SavingsAccount\n    Seller --&gt; Transaction\n    EDCMachine --&gt; Transaction\n    ATMCard --|&gt; Card\n    DebitCard --|&gt; Card\n    ATM \&quot;1\&quot; --&gt; \&quot;0..*\&quot; Transaction\n    Seller \&quot;1\&quot; --&gt; \&quot;0..*\&quot; EDCMachine\n    EDCMachine \&quot;1\&quot; --&gt; \&quot;1\&quot; Seller\n    Bank \&quot;1\&quot; --&gt; \&quot;0..*\&quot; User\n    Bank \&quot;1\&quot; --&gt; \&quot;0..*\&quot; ATM\n    Bank \&quot;1\&quot; --&gt; \&quot;0..*\&quot; Seller\n&quot;,&#10;  &quot;config&quot;: {&#10;    &quot;theme&quot;: &quot;neutral&quot;,&#10;    &quot;arrowMarkerAbsolute&quot;: false,&#10;    &quot;flowchart&quot;: {&#10;      &quot;htmlLabels&quot;: false&#10;    },&#10;    &quot;sequence&quot;: {&#10;      &quot;diagramMarginX&quot;: 50,&#10;      &quot;diagramMarginY&quot;: 10,&#10;      &quot;actorMargin&quot;: 50,&#10;      &quot;width&quot;: 150,&#10;      &quot;height&quot;: 65,&#10;      &quot;boxMargin&quot;: 10,&#10;      &quot;boxTextMargin&quot;: 5,&#10;      &quot;noteMargin&quot;: 10,&#10;      &quot;messageMargin&quot;: 35,&#10;      &quot;mirrorActors&quot;: true,&#10;      &quot;bottomMarginAdj&quot;: 1,&#10;      &quot;useMaxWidth&quot;: true,&#10;      &quot;rightAngles&quot;: false,&#10;      &quot;showSequenceNumbers&quot;: false&#10;    },&#10;    &quot;gantt&quot;: {&#10;      &quot;titleTopMargin&quot;: 25,&#10;      &quot;barHeight&quot;: 20,&#10;      &quot;barGap&quot;: 4,&#10;      &quot;topPadding&quot;: 50,&#10;      &quot;leftPadding&quot;: 75,&#10;      &quot;gridLineStartPadding&quot;: 35,&#10;      &quot;fontSize&quot;: 11,&#10;      &quot;fontFamily&quot;: &quot;\&quot;Open-Sans\&quot;, \&quot;sans-serif\&quot;&quot;,&#10;      &quot;numberSectionStyles&quot;: 4,&#10;      &quot;axisFormat&quot;: &quot;%Y-%m-%d&quot;&#10;    }&#10;  }&#10;}" id="59">
                    <mxCell style="shape=image;noLabel=1;verticalAlign=top;imageAspect=1;image=data:image/svg+xml,PHN2ZyBhcmlhLWxhYmVsbGVkYnk9ImNoYXJ0LXRpdGxlLWdlTWVybWFpZE91dHB1dC0xNzM2NDkwODE3NjY0IGNoYXJ0LWRlc2MtZ2VNZXJtYWlkT3V0cHV0LTE3MzY0OTA4MTc2NjQiIHJvbGU9ImltZyIgdmlld0JveD0iMCAwIDE2MjYuMTkxNDA2MjUgMTU0MSIgc3R5bGU9Im1heC13aWR0aDogMTYyNi4xOTE0MDYyNXB4OyIgaGVpZ2h0PSIxNTQxIiB4bWxuczp4bGluaz0iaHR0cDovL3d3dy53My5vcmcvMTk5OS94bGluayIgeG1sbnM9Imh0dHA6Ly93d3cudzMub3JnLzIwMDAvc3ZnIiB3aWR0aD0iMTAwJSIgaWQ9ImdlTWVybWFpZE91dHB1dC0xNzM2NDkwODE3NjY0Ij48dGl0bGUgaWQ9ImNoYXJ0LXRpdGxlLWdlTWVybWFpZE91dHB1dC0xNzM2NDkwODE3NjY0Ij48L3RpdGxlPjxkZXNjIGlkPSJjaGFydC1kZXNjLWdlTWVybWFpZE91dHB1dC0xNzM2NDkwODE3NjY0Ij48L2Rlc2M+PHN0eWxlPiNnZU1lcm1haWRPdXRwdXQtMTczNjQ5MDgxNzY2NCB7Zm9udC1mYW1pbHk6InRyZWJ1Y2hldCBtcyIsdmVyZGFuYSxhcmlhbCxzYW5zLXNlcmlmO2ZvbnQtc2l6ZToxNnB4O2ZpbGw6I2NjYzt9I2dlTWVybWFpZE91dHB1dC0xNzM2NDkwODE3NjY0IC5lcnJvci1pY29ue2ZpbGw6I2E0NDE0MTt9I2dlTWVybWFpZE91dHB1dC0xNzM2NDkwODE3NjY0IC5lcnJvci10ZXh0e2ZpbGw6I2RkZDtzdHJva2U6I2RkZDt9I2dlTWVybWFpZE91dHB1dC0xNzM2NDkwODE3NjY0IC5lZGdlLXRoaWNrbmVzcy1ub3JtYWx7c3Ryb2tlLXdpZHRoOjJweDt9I2dlTWVybWFpZE91dHB1dC0xNzM2NDkwODE3NjY0IC5lZGdlLXRoaWNrbmVzcy10aGlja3tzdHJva2Utd2lkdGg6My41cHg7fSNnZU1lcm1haWRPdXRwdXQtMTczNjQ5MDgxNzY2NCAuZWRnZS1wYXR0ZXJuLXNvbGlke3N0cm9rZS1kYXNoYXJyYXk6MDt9I2dlTWVybWFpZE91dHB1dC0xNzM2NDkwODE3NjY0IC5lZGdlLXBhdHRlcm4tZGFzaGVke3N0cm9rZS1kYXNoYXJyYXk6Mzt9I2dlTWVybWFpZE91dHB1dC0xNzM2NDkwODE3NjY0IC5lZGdlLXBhdHRlcm4tZG90dGVke3N0cm9rZS1kYXNoYXJyYXk6Mjt9I2dlTWVybWFpZE91dHB1dC0xNzM2NDkwODE3NjY0IC5tYXJrZXJ7ZmlsbDpsaWdodGdyZXk7c3Ryb2tlOmxpZ2h0Z3JleTt9I2dlTWVybWFpZE91dHB1dC0xNzM2NDkwODE3NjY0IC5tYXJrZXIuY3Jvc3N7c3Ryb2tlOmxpZ2h0Z3JleTt9I2dlTWVybWFpZE91dHB1dC0xNzM2NDkwODE3NjY0IHN2Z3tmb250LWZhbWlseToidHJlYnVjaGV0IG1zIix2ZXJkYW5hLGFyaWFsLHNhbnMtc2VyaWY7Zm9udC1zaXplOjE2cHg7fSNnZU1lcm1haWRPdXRwdXQtMTczNjQ5MDgxNzY2NCBnLmNsYXNzR3JvdXAgdGV4dHtmaWxsOiM4MUIxREI7ZmlsbDojZTBkZmRmO3N0cm9rZTpub25lO2ZvbnQtZmFtaWx5OiJ0cmVidWNoZXQgbXMiLHZlcmRhbmEsYXJpYWwsc2Fucy1zZXJpZjtmb250LXNpemU6MTBweDt9I2dlTWVybWFpZE91dHB1dC0xNzM2NDkwODE3NjY0IGcuY2xhc3NHcm91cCB0ZXh0IC50aXRsZXtmb250LXdlaWdodDpib2xkZXI7fSNnZU1lcm1haWRPdXRwdXQtMTczNjQ5MDgxNzY2NCAubm9kZUxhYmVsLCNnZU1lcm1haWRPdXRwdXQtMTczNjQ5MDgxNzY2NCAuZWRnZUxhYmVse2NvbG9yOiNlMGRmZGY7fSNnZU1lcm1haWRPdXRwdXQtMTczNjQ5MDgxNzY2NCAuZWRnZUxhYmVsIC5sYWJlbCByZWN0e2ZpbGw6IzFmMjAyMDt9I2dlTWVybWFpZE91dHB1dC0xNzM2NDkwODE3NjY0IC5sYWJlbCB0ZXh0e2ZpbGw6I2UwZGZkZjt9I2dlTWVybWFpZE91dHB1dC0xNzM2NDkwODE3NjY0IC5lZGdlTGFiZWwgLmxhYmVsIHNwYW57YmFja2dyb3VuZDojMWYyMDIwO30jZ2VNZXJtYWlkT3V0cHV0LTE3MzY0OTA4MTc2NjQgLmNsYXNzVGl0bGV7Zm9udC13ZWlnaHQ6Ym9sZGVyO30jZ2VNZXJtYWlkT3V0cHV0LTE3MzY0OTA4MTc2NjQgLm5vZGUgcmVjdCwjZ2VNZXJtYWlkT3V0cHV0LTE3MzY0OTA4MTc2NjQgLm5vZGUgY2lyY2xlLCNnZU1lcm1haWRPdXRwdXQtMTczNjQ5MDgxNzY2NCAubm9kZSBlbGxpcHNlLCNnZU1lcm1haWRPdXRwdXQtMTczNjQ5MDgxNzY2NCAubm9kZSBwb2x5Z29uLCNnZU1lcm1haWRPdXRwdXQtMTczNjQ5MDgxNzY2NCAubm9kZSBwYXRoe2ZpbGw6IzFmMjAyMDtzdHJva2U6IzgxQjFEQjtzdHJva2Utd2lkdGg6MXB4O30jZ2VNZXJtYWlkT3V0cHV0LTE3MzY0OTA4MTc2NjQgLmRpdmlkZXJ7c3Ryb2tlOiM4MUIxREI7c3Ryb2tlOjE7fSNnZU1lcm1haWRPdXRwdXQtMTczNjQ5MDgxNzY2NCBnLmNsaWNrYWJsZXtjdXJzb3I6cG9pbnRlcjt9I2dlTWVybWFpZE91dHB1dC0xNzM2NDkwODE3NjY0IGcuY2xhc3NHcm91cCByZWN0e2ZpbGw6IzFmMjAyMDtzdHJva2U6IzgxQjFEQjt9I2dlTWVybWFpZE91dHB1dC0xNzM2NDkwODE3NjY0IGcuY2xhc3NHcm91cCBsaW5le3N0cm9rZTojODFCMURCO3N0cm9rZS13aWR0aDoxO30jZ2VNZXJtYWlkT3V0cHV0LTE3MzY0OTA4MTc2NjQgLmNsYXNzTGFiZWwgLmJveHtzdHJva2U6bm9uZTtzdHJva2Utd2lkdGg6MDtmaWxsOiMxZjIwMjA7b3BhY2l0eTowLjU7fSNnZU1lcm1haWRPdXRwdXQtMTczNjQ5MDgxNzY2NCAuY2xhc3NMYWJlbCAubGFiZWx7ZmlsbDojODFCMURCO2ZvbnQtc2l6ZToxMHB4O30jZ2VNZXJtYWlkT3V0cHV0LTE3MzY0OTA4MTc2NjQgLnJlbGF0aW9ue3N0cm9rZTpsaWdodGdyZXk7c3Ryb2tlLXdpZHRoOjE7ZmlsbDpub25lO30jZ2VNZXJtYWlkT3V0cHV0LTE3MzY0OTA4MTc2NjQgLmRhc2hlZC1saW5le3N0cm9rZS1kYXNoYXJyYXk6Mzt9I2dlTWVybWFpZE91dHB1dC0xNzM2NDkwODE3NjY0ICNjb21wb3NpdGlvblN0YXJ0LCNnZU1lcm1haWRPdXRwdXQtMTczNjQ5MDgxNzY2NCAuY29tcG9zaXRpb257ZmlsbDpsaWdodGdyZXkhaW1wb3J0YW50O3N0cm9rZTpsaWdodGdyZXkhaW1wb3J0YW50O3N0cm9rZS13aWR0aDoxO30jZ2VNZXJtYWlkT3V0cHV0LTE3MzY0OTA4MTc2NjQgI2NvbXBvc2l0aW9uRW5kLCNnZU1lcm1haWRPdXRwdXQtMTczNjQ5MDgxNzY2NCAuY29tcG9zaXRpb257ZmlsbDpsaWdodGdyZXkhaW1wb3J0YW50O3N0cm9rZTpsaWdodGdyZXkhaW1wb3J0YW50O3N0cm9rZS13aWR0aDoxO30jZ2VNZXJtYWlkT3V0cHV0LTE3MzY0OTA4MTc2NjQgI2RlcGVuZGVuY3lTdGFydCwjZ2VNZXJtYWlkT3V0cHV0LTE3MzY0OTA4MTc2NjQgLmRlcGVuZGVuY3l7ZmlsbDpsaWdodGdyZXkhaW1wb3J0YW50O3N0cm9rZTpsaWdodGdyZXkhaW1wb3J0YW50O3N0cm9rZS13aWR0aDoxO30jZ2VNZXJtYWlkT3V0cHV0LTE3MzY0OTA4MTc2NjQgI2RlcGVuZGVuY3lTdGFydCwjZ2VNZXJtYWlkT3V0cHV0LTE3MzY0OTA4MTc2NjQgLmRlcGVuZGVuY3l7ZmlsbDpsaWdodGdyZXkhaW1wb3J0YW50O3N0cm9rZTpsaWdodGdyZXkhaW1wb3J0YW50O3N0cm9rZS13aWR0aDoxO30jZ2VNZXJtYWlkT3V0cHV0LTE3MzY0OTA4MTc2NjQgI2V4dGVuc2lvblN0YXJ0LCNnZU1lcm1haWRPdXRwdXQtMTczNjQ5MDgxNzY2NCAuZXh0ZW5zaW9ue2ZpbGw6bGlnaHRncmV5IWltcG9ydGFudDtzdHJva2U6bGlnaHRncmV5IWltcG9ydGFudDtzdHJva2Utd2lkdGg6MTt9I2dlTWVybWFpZE91dHB1dC0xNzM2NDkwODE3NjY0ICNleHRlbnNpb25FbmQsI2dlTWVybWFpZE91dHB1dC0xNzM2NDkwODE3NjY0IC5leHRlbnNpb257ZmlsbDpsaWdodGdyZXkhaW1wb3J0YW50O3N0cm9rZTpsaWdodGdyZXkhaW1wb3J0YW50O3N0cm9rZS13aWR0aDoxO30jZ2VNZXJtYWlkT3V0cHV0LTE3MzY0OTA4MTc2NjQgI2FnZ3JlZ2F0aW9uU3RhcnQsI2dlTWVybWFpZE91dHB1dC0xNzM2NDkwODE3NjY0IC5hZ2dyZWdhdGlvbntmaWxsOiMxZjIwMjAhaW1wb3J0YW50O3N0cm9rZTpsaWdodGdyZXkhaW1wb3J0YW50O3N0cm9rZS13aWR0aDoxO30jZ2VNZXJtYWlkT3V0cHV0LTE3MzY0OTA4MTc2NjQgI2FnZ3JlZ2F0aW9uRW5kLCNnZU1lcm1haWRPdXRwdXQtMTczNjQ5MDgxNzY2NCAuYWdncmVnYXRpb257ZmlsbDojMWYyMDIwIWltcG9ydGFudDtzdHJva2U6bGlnaHRncmV5IWltcG9ydGFudDtzdHJva2Utd2lkdGg6MTt9I2dlTWVybWFpZE91dHB1dC0xNzM2NDkwODE3NjY0IC5lZGdlVGVybWluYWxze2ZvbnQtc2l6ZToxMXB4O30jZ2VNZXJtYWlkT3V0cHV0LTE3MzY0OTA4MTc2NjQgOnJvb3R7LS1tZXJtYWlkLWZvbnQtZmFtaWx5OiJ0cmVidWNoZXQgbXMiLHZlcmRhbmEsYXJpYWwsc2Fucy1zZXJpZjt9PC9zdHlsZT48ZyB0cmFuc2Zvcm09InRyYW5zbGF0ZSgwLCAwKSI+PGRlZnM+PG1hcmtlciBvcmllbnQ9ImF1dG8iIG1hcmtlckhlaWdodD0iMjQwIiBtYXJrZXJXaWR0aD0iMTkwIiByZWZZPSI3IiByZWZYPSIwIiBjbGFzcz0ibWFya2VyIGFnZ3JlZ2F0aW9uIGNsYXNzRGlhZ3JhbSIgaWQ9ImNsYXNzRGlhZ3JhbS1hZ2dyZWdhdGlvblN0YXJ0Ij48cGF0aCBkPSJNIDE4LDcgTDksMTMgTDEsNyBMOSwxIFoiPjwvcGF0aD48L21hcmtlcj48L2RlZnM+PGRlZnM+PG1hcmtlciBvcmllbnQ9ImF1dG8iIG1hcmtlckhlaWdodD0iMjgiIG1hcmtlcldpZHRoPSIyMCIgcmVmWT0iNyIgcmVmWD0iMTkiIGNsYXNzPSJtYXJrZXIgYWdncmVnYXRpb24gY2xhc3NEaWFncmFtIiBpZD0iY2xhc3NEaWFncmFtLWFnZ3JlZ2F0aW9uRW5kIj48cGF0aCBkPSJNIDE4LDcgTDksMTMgTDEsNyBMOSwxIFoiPjwvcGF0aD48L21hcmtlcj48L2RlZnM+PGRlZnM+PG1hcmtlciBvcmllbnQ9ImF1dG8iIG1hcmtlckhlaWdodD0iMjQwIiBtYXJrZXJXaWR0aD0iMTkwIiByZWZZPSI3IiByZWZYPSIwIiBjbGFzcz0ibWFya2VyIGV4dGVuc2lvbiBjbGFzc0RpYWdyYW0iIGlkPSJjbGFzc0RpYWdyYW0tZXh0ZW5zaW9uU3RhcnQiPjxwYXRoIGQ9Ik0gMSw3IEwxOCwxMyBWIDEgWiI+PC9wYXRoPjwvbWFya2VyPjwvZGVmcz48ZGVmcz48bWFya2VyIG9yaWVudD0iYXV0byIgbWFya2VySGVpZ2h0PSIyOCIgbWFya2VyV2lkdGg9IjIwIiByZWZZPSI3IiByZWZYPSIxOSIgY2xhc3M9Im1hcmtlciBleHRlbnNpb24gY2xhc3NEaWFncmFtIiBpZD0iY2xhc3NEaWFncmFtLWV4dGVuc2lvbkVuZCI+PHBhdGggZD0iTSAxLDEgViAxMyBMMTgsNyBaIj48L3BhdGg+PC9tYXJrZXI+PC9kZWZzPjxkZWZzPjxtYXJrZXIgb3JpZW50PSJhdXRvIiBtYXJrZXJIZWlnaHQ9IjI0MCIgbWFya2VyV2lkdGg9IjE5MCIgcmVmWT0iNyIgcmVmWD0iMCIgY2xhc3M9Im1hcmtlciBjb21wb3NpdGlvbiBjbGFzc0RpYWdyYW0iIGlkPSJjbGFzc0RpYWdyYW0tY29tcG9zaXRpb25TdGFydCI+PHBhdGggZD0iTSAxOCw3IEw5LDEzIEwxLDcgTDksMSBaIj48L3BhdGg+PC9tYXJrZXI+PC9kZWZzPjxkZWZzPjxtYXJrZXIgb3JpZW50PSJhdXRvIiBtYXJrZXJIZWlnaHQ9IjI4IiBtYXJrZXJXaWR0aD0iMjAiIHJlZlk9IjciIHJlZlg9IjE5IiBjbGFzcz0ibWFya2VyIGNvbXBvc2l0aW9uIGNsYXNzRGlhZ3JhbSIgaWQ9ImNsYXNzRGlhZ3JhbS1jb21wb3NpdGlvbkVuZCI+PHBhdGggZD0iTSAxOCw3IEw5LDEzIEwxLDcgTDksMSBaIj48L3BhdGg+PC9tYXJrZXI+PC9kZWZzPjxkZWZzPjxtYXJrZXIgb3JpZW50PSJhdXRvIiBtYXJrZXJIZWlnaHQ9IjI0MCIgbWFya2VyV2lkdGg9IjE5MCIgcmVmWT0iNyIgcmVmWD0iMCIgY2xhc3M9Im1hcmtlciBkZXBlbmRlbmN5IGNsYXNzRGlhZ3JhbSIgaWQ9ImNsYXNzRGlhZ3JhbS1kZXBlbmRlbmN5U3RhcnQiPjxwYXRoIGQ9Ik0gNSw3IEw5LDEzIEwxLDcgTDksMSBaIj48L3BhdGg+PC9tYXJrZXI+PC9kZWZzPjxkZWZzPjxtYXJrZXIgb3JpZW50PSJhdXRvIiBtYXJrZXJIZWlnaHQ9IjI4IiBtYXJrZXJXaWR0aD0iMjAiIHJlZlk9IjciIHJlZlg9IjE5IiBjbGFzcz0ibWFya2VyIGRlcGVuZGVuY3kgY2xhc3NEaWFncmFtIiBpZD0iY2xhc3NEaWFncmFtLWRlcGVuZGVuY3lFbmQiPjxwYXRoIGQ9Ik0gMTgsNyBMOSwxMyBMMTQsNyBMOSwxIFoiPjwvcGF0aD48L21hcmtlcj48L2RlZnM+PGcgY2xhc3M9InJvb3QiPjxnIGNsYXNzPSJjbHVzdGVycyI+PC9nPjxnIGNsYXNzPSJlZGdlUGF0aHMiPjxwYXRoIG1hcmtlci1lbmQ9InVybCgjY2xhc3NEaWFncmFtLWRlcGVuZGVuY3lFbmQpIiBzdHlsZT0iZmlsbDpub25lIiBjbGFzcz0iZWRnZS1wYXR0ZXJuLXNvbGlkIHJlbGF0aW9uIiBpZD0iaWQxIiBkPSJNMTU2LjExMzI4MTI1LDY2OC41TDE1Ni4xMTMyODEyNSw2NzQuNTgzMzMzMzMzMzMzNEMxNTYuMTEzMjgxMjUsNjgwLjY2NjY2NjY2NjY2NjYsMTU2LjExMzI4MTI1LDY5Mi44MzMzMzMzMzMzMzM0LDE1Ni41NzQ5NjE3NjcwODIyLDcwMy4wODMzMzMzMzMzMzM0QzE1Ny4wMzY2NDIyODQxNjQzNCw3MTMuMzMzMzMzMzMzMzMzNCwxNTcuOTYwMDAzMzE4MzI4NzIsNzIxLjY2NjY2NjY2NjY2NjYsMTU4LjQyMTY4MzgzNTQxMDksNzI1LjgzMzMzMzMzMzMzMzRMMTU4Ljg4MzM2NDM1MjQ5MzA2LDczMCI+PC9wYXRoPjxwYXRoIG1hcmtlci1lbmQ9InVybCgjY2xhc3NEaWFncmFtLWRlcGVuZGVuY3lFbmQpIiBzdHlsZT0iZmlsbDpub25lIiBjbGFzcz0iZWRnZS1wYXR0ZXJuLXNvbGlkIHJlbGF0aW9uIiBpZD0iaWQyIiBkPSJNMTc2LjExMzI4MTI1LDczMEwxNzYuMTEzMjgxMjUsNzI1LjgzMzMzMzMzMzMzMzRDMTc2LjExMzI4MTI1LDcyMS42NjY2NjY2NjY2NjY2LDE3Ni4xMTMyODEyNSw3MTMuMzMzMzMzMzMzMzMzNCwxNzUuMzQwNzk0NDc3NTEzMiw3MDMuMDgzMzMzMzMzMzMzNEMxNzQuNTY4MzA3NzA1MDI2NDYsNjkyLjgzMzMzMzMzMzMzMzQsMTczLjAyMzMzNDE2MDA1Mjk0LDY4MC42NjY2NjY2NjY2NjY2LDE3Mi4yNTA4NDczODc1NjYxNSw2NzQuNTgzMzMzMzMzMzMzNEwxNzEuNDc4MzYwNjE1MDc5MzcsNjY4LjUiPjwvcGF0aD48cGF0aCBtYXJrZXItZW5kPSJ1cmwoI2NsYXNzRGlhZ3JhbS1kZXBlbmRlbmN5RW5kKSIgc3R5bGU9ImZpbGw6bm9uZSIgY2xhc3M9ImVkZ2UtcGF0dGVybi1zb2xpZCByZWxhdGlvbiIgaWQ9ImlkMyIgZD0iTTE1OC44ODMzNjQzNTI0OTMwNiwxMDQxTDE1OC40MjE2ODM4MzU0MTA5LDEwNDUuMTY2NjY2NjY2NjY2N0MxNTcuOTYwMDAzMzE4MzI4NzIsMTA0OS4zMzMzMzMzMzMzMzMzLDE1Ny4wMzY2NDIyODQxNjQzNCwxMDU3LjY2NjY2NjY2NjY2NjcsMjg1LjkzOTIxOTU3OTU4MjIsMTA4My43MzQzNDE4NDIxMzA4QzQxNC44NDE3OTY4NzUsMTEwOS44MDIwMTcwMTc1OTUsNjczLjU3MDMxMjUsMTE1My42MDQwMzQwMzUxOTA0LDgwMi45MzQ1NzAzMTI1LDExNzUuNTA1MDQyNTQzOTg3OUw5MzIuMjk4ODI4MTI1LDExOTcuNDA2MDUxMDUyNzg1NCI+PC9wYXRoPjxwYXRoIG1hcmtlci1lbmQ9InVybCgjY2xhc3NEaWFncmFtLWRlcGVuZGVuY3lFbmQpIiBzdHlsZT0iZmlsbDpub25lIiBjbGFzcz0iZWRnZS1wYXR0ZXJuLXNvbGlkIHJlbGF0aW9uIiBpZD0iaWQ0IiBkPSJNMTc2LjExMzI4MTI1LDEwNDFMMTc2LjExMzI4MTI1LDEwNDUuMTY2NjY2NjY2NjY2N0MxNzYuMTEzMjgxMjUsMTA0OS4zMzMzMzMzMzMzMzMzLDE3Ni4xMTMyODEyNSwxMDU3LjY2NjY2NjY2NjY2NjcsMjA2LjM4NjcxODc1LDEwNzkuMjAwOTQ2NTMzNjQwM0MyMzYuNjYwMTU2MjUsMTEwMC43MzUyMjY0MDA2MTQsMjk3LjIwNzAzMTI1LDExMzUuNDcwNDUyODAxMjI3OCwzMjcuNDgwNDY4NzUsMTE1Mi44MzgwNjYwMDE1MzQ4TDM1Ny43NTM5MDYyNSwxMTcwLjIwNTY3OTIwMTg0MTgiPjwvcGF0aD48cGF0aCBtYXJrZXItZW5kPSJ1cmwoI2NsYXNzRGlhZ3JhbS1leHRlbnNpb25FbmQpIiBzdHlsZT0iZmlsbDpub25lIiBjbGFzcz0iZWRnZS1wYXR0ZXJuLXNvbGlkIHJlbGF0aW9uIiBpZD0iaWQ1IiBkPSJNMjg4Ljc0NTExNzE4NzUsMTM4M0wyODMuODU5ODYzMjgxMjUsMTM3OC44MzMzMzMzMzMzMzMzQzI3OC45NzQ2MDkzNzUsMTM3NC42NjY2NjY2NjY2NjY3LDI2OS4yMDQxMDE1NjI1LDEzNjYuMzMzMzMzMzMzMzMzMywyNjQuMzE4ODQ3NjU2MjUsMTMzNy44MzMzMzMzMzMzMzMzQzI1OS40MzM1OTM3NSwxMzA5LjMzMzMzMzMzMzMzMzMsMjU5LjQzMzU5Mzc1LDEyNjAuNjY2NjY2NjY2NjY2NywyNTkuNDMzNTkzNzUsMTIxMkMyNTkuNDMzNTkzNzUsMTE2My4zMzMzMzMzMzMzMzMzLDI1OS40MzM1OTM3NSwxMTE0LjY2NjY2NjY2NjY2NjcsMjU3LjUxMDIyNTUwMjA3NzU2LDEwODYuMTY2NjY2NjY2NjY2N0MyNTUuNTg2ODU3MjU0MTU1MTIsMTA1Ny42NjY2NjY2NjY2NjY3LDI1MS43NDAxMjA3NTgzMTAyNCwxMDQ5LjMzMzMzMzMzMzMzMzMsMjQ5LjgxNjc1MjUxMDM4NzgsMTA0NS4xNjY2NjY2NjY2NjY3TDI0Ny44OTMzODQyNjI0NjUzNiwxMDQxIj48L3BhdGg+PHBhdGggbWFya2VyLWVuZD0idXJsKCNjbGFzc0RpYWdyYW0tZXh0ZW5zaW9uRW5kKSIgc3R5bGU9ImZpbGw6bm9uZSIgY2xhc3M9ImVkZ2UtcGF0dGVybi1zb2xpZCByZWxhdGlvbiIgaWQ9ImlkNiIgZD0iTTYxMy4zMzU5Mzc1LDU5OS41TDYxMy4zMzU5Mzc1LDYxNy4wODMzMzMzMzMzMzM0QzYxMy4zMzU5Mzc1LDYzNC42NjY2NjY2NjY2NjY2LDYxMy4zMzU5Mzc1LDY2OS44MzMzMzMzMzMzMzM0LDU2Ny44MTcwNTcyOTE2NjY2LDcwNi4yMDgzNjg2OTgwMTM5QzUyMi4yOTgxNzcwODMzMzM0LDc0Mi41ODM0MDQwNjI2OTQ1LDQzMS4yNjA0MTY2NjY2NjY3LDc4MC4xNjY4MDgxMjUzODg5LDM4NS43NDE1MzY0NTgzMzMzLDc5OC45NTg1MTAxNTY3MzYzTDM0MC4yMjI2NTYyNSw4MTcuNzUwMjEyMTg4MDgzNSI+PC9wYXRoPjxwYXRoIG1hcmtlci1lbmQ9InVybCgjY2xhc3NEaWFncmFtLWV4dGVuc2lvbkVuZCkiIHN0eWxlPSJmaWxsOm5vbmUiIGNsYXNzPSJlZGdlLXBhdHRlcm4tc29saWQgcmVsYXRpb24iIGlkPSJpZDciIGQ9Ik00MzAuNjA1NDY4NzUsMTMzM0w0MzAuNjA1NDY4NzUsMTMzNy4xNjY2NjY2NjY2NjY3QzQzMC42MDU0Njg3NSwxMzQxLjMzMzMzMzMzMzMzMzMsNDMwLjYwNTQ2ODc1LDEzNDkuNjY2NjY2NjY2NjY2Nyw0MjguMzU4NTYxMTk3OTE2NywxMzU4QzQyNi4xMTE2NTM2NDU4MzMzLDEzNjYuMzMzMzMzMzMzMzMzMyw0MjEuNjE3ODM4NTQxNjY2NywxMzc0LjY2NjY2NjY2NjY2NjcsNDE5LjM3MDkzMDk4OTU4MzMsMTM3OC44MzMzMzMzMzMzMzMzTDQxNy4xMjQwMjM0Mzc1LDEzODMiPjwvcGF0aD48cGF0aCBtYXJrZXItZW5kPSJ1cmwoI2NsYXNzRGlhZ3JhbS1kZXBlbmRlbmN5RW5kKSIgc3R5bGU9ImZpbGw6bm9uZSIgY2xhc3M9ImVkZ2UtcGF0dGVybi1zb2xpZCByZWxhdGlvbiIgaWQ9ImlkOCIgZD0iTTExNzEuMTMxMzI0NDA0NzYyLDY4MEwxMTY3LjUzNTg2OTI5NTYzNSw2ODQuMTY2NjY2NjY2NjY2NkMxMTYzLjk0MDQxNDE4NjUwOCw2ODguMzMzMzMzMzMzMzMzNCwxMTU2Ljc0OTUwMzk2ODI1NCw2OTYuNjY2NjY2NjY2NjY2NiwxMTUzLjE1NDA0ODg1OTEyNyw3MzAuOTE2NjY2NjY2NjY2NkMxMTQ5LjU1ODU5Mzc1LDc2NS4xNjY2NjY2NjY2NjY2LDExNDkuNTU4NTkzNzUsODI1LjMzMzMzMzMzMzMzMzQsMTE0OS41NTg1OTM3NSw4ODUuNUMxMTQ5LjU1ODU5Mzc1LDk0NS42NjY2NjY2NjY2NjY2LDExNDkuNTU4NTkzNzUsMTAwNS44MzMzMzMzMzMzMzM0LDExNDIuMDgzMDA3ODEyNSwxMDQ0LjI0NDYzNDk1MzI3OTVDMTEzNC42MDc0MjE4NzUsMTA4Mi42NTU5MzY1NzMyMjU1LDExMTkuNjU2MjUsMTA5OS4zMTE4NzMxNDY0NTA4LDExMTIuMTgwNjY0MDYyNSwxMTA3LjYzOTg0MTQzMzA2MzZMMTEwNC43MDUwNzgxMjUsMTExNS45Njc4MDk3MTk2NzYzIj48L3BhdGg+PHBhdGggbWFya2VyLWVuZD0idXJsKCNjbGFzc0RpYWdyYW0tZGVwZW5kZW5jeUVuZCkiIHN0eWxlPSJmaWxsOm5vbmUiIGNsYXNzPSJlZGdlLXBhdHRlcm4tc29saWQgcmVsYXRpb24iIGlkPSJpZDkiIGQ9Ik0xNDAxLjM3NSw5NzJMMTQwMS4zNzUsOTg3LjY2NjY2NjY2NjY2NjZDMTQwMS4zNzUsMTAwMy4zMzMzMzMzMzMzMzM0LDE0MDEuMzc1LDEwMzQuNjY2NjY2NjY2NjY2NywxMzUxLjkzMDAxMzAyMDgzMzMsMTA2OS4xODgwNjM3OTI2MzE1QzEzMDIuNDg1MDI2MDQxNjY2NywxMTAzLjcwOTQ2MDkxODU5NjMsMTIwMy41OTUwNTIwODMzMzMzLDExNDEuNDE4OTIxODM3MTkyMywxMTU0LjE1MDA2NTEwNDE2NjcsMTE2MC4yNzM2NTIyOTY0OTA2TDExMDQuNzA1MDc4MTI1LDExNzkuMTI4MzgyNzU1Nzg4NiI+PC9wYXRoPjxwYXRoIG1hcmtlci1lbmQ9InVybCgjY2xhc3NEaWFncmFtLWV4dGVuc2lvbkVuZCkiIHN0eWxlPSJmaWxsOm5vbmUiIGNsYXNzPSJlZGdlLXBhdHRlcm4tc29saWQgcmVsYXRpb24iIGlkPSJpZDEwIiBkPSJNNDMwLjYwNTQ2ODc1LDkyNkw0MzAuNjA1NDY4NzUsOTQ5LjMzMzMzMzMzMzMzMzRDNDMwLjYwNTQ2ODc1LDk3Mi42NjY2NjY2NjY2NjY2LDQzMC42MDU0Njg3NSwxMDE5LjMzMzMzMzMzMzMzMzQsNDMwLjYwNTQ2ODc1LDEwNDYuODMzMzMzMzMzMzMzM0M0MzAuNjA1NDY4NzUsMTA3NC4zMzMzMzMzMzMzMzMzLDQzMC42MDU0Njg3NSwxMDgyLjY2NjY2NjY2NjY2NjcsNDMwLjYwNTQ2ODc1LDEwODYuODMzMzMzMzMzMzMzM0w0MzAuNjA1NDY4NzUsMTA5MSI+PC9wYXRoPjxwYXRoIG1hcmtlci1lbmQ9InVybCgjY2xhc3NEaWFncmFtLWV4dGVuc2lvbkVuZCkiIHN0eWxlPSJmaWxsOm5vbmUiIGNsYXNzPSJlZGdlLXBhdHRlcm4tc29saWQgcmVsYXRpb24iIGlkPSJpZDExIiBkPSJNNTY1LjY2MDE1NjI1LDkyNkw1NjUuNjYwMTU2MjUsOTQ5LjMzMzMzMzMzMzMzMzRDNTY1LjY2MDE1NjI1LDk3Mi42NjY2NjY2NjY2NjY2LDU2NS42NjAxNTYyNSwxMDE5LjMzMzMzMzMzMzMzMzQsNTU1LjI5Mjk2ODc1LDEwNTMuODc0MDQ3OTM1ODI4NUM1NDQuOTI1NzgxMjUsMTA4OC40MTQ3NjI1MzgzMjM3LDUyNC4xOTE0MDYyNSwxMTEwLjgyOTUyNTA3NjY0Nyw1MTMuODI0MjE4NzUsMTEyMi4wMzY5MDYzNDU4MDlMNTAzLjQ1NzAzMTI1LDExMzMuMjQ0Mjg3NjE0OTcwNyI+PC9wYXRoPjxwYXRoIG1hcmtlci1lbmQ9InVybCgjY2xhc3NEaWFncmFtLWRlcGVuZGVuY3lFbmQpIiBzdHlsZT0iZmlsbDpub25lIiBjbGFzcz0iZWRnZS1wYXR0ZXJuLXNvbGlkIHJlbGF0aW9uIiBpZD0iaWQxMiIgZD0iTTg4Ny40NDUzMTI1LDEwMDYuNUw4ODcuNDQ1MzEyNSwxMDE2LjQxNjY2NjY2NjY2NjZDODg3LjQ0NTMxMjUsMTAyNi4zMzMzMzMzMzMzMzMzLDg4Ny40NDUzMTI1LDEwNDYuMTY2NjY2NjY2NjY2Nyw4OTQuOTIwODk4NDM3NSwxMDY0LjQxMTMwMTYxOTk0NkM5MDIuMzk2NDg0Mzc1LDEwODIuNjU1OTM2NTczMjI1NSw5MTcuMzQ3NjU2MjUsMTA5OS4zMTE4NzMxNDY0NTA4LDkyNC44MjMyNDIxODc1LDExMDcuNjM5ODQxNDMzMDYzNkw5MzIuMjk4ODI4MTI1LDExMTUuOTY3ODA5NzE5Njc2MyI+PC9wYXRoPjxwYXRoIG1hcmtlci1lbmQ9InVybCgjY2xhc3NEaWFncmFtLWRlcGVuZGVuY3lFbmQpIiBzdHlsZT0iZmlsbDpub25lIiBjbGFzcz0iZWRnZS1wYXR0ZXJuLXNvbGlkIHJlbGF0aW9uIiBpZD0iaWQxMyIgZD0iTTEyODUuNDY2Nzk2ODc1LDY4MEwxMjg1LjQ2Njc5Njg3NSw2ODQuMTY2NjY2NjY2NjY2NkMxMjg1LjQ2Njc5Njg3NSw2ODguMzMzMzMzMzMzMzMzNCwxMjg1LjQ2Njc5Njg3NSw2OTYuNjY2NjY2NjY2NjY2NiwxMjk1LjUyNzE1Nzk5NTcyOTYsNzE2LjVDMTMwNS41ODc1MTkxMTY0NTksNzM2LjMzMzMzMzMzMzMzMzQsMTMyNS43MDgyNDEzNTc5MTc4LDc2Ny42NjY2NjY2NjY2NjY2LDEzMzUuNzY4NjAyNDc4NjQ3NCw3ODMuMzMzMzMzMzMzMzMzNEwxMzQ1LjgyODk2MzU5OTM3NjcsNzk5Ij48L3BhdGg+PHBhdGggbWFya2VyLWVuZD0idXJsKCNjbGFzc0RpYWdyYW0tZGVwZW5kZW5jeUVuZCkiIHN0eWxlPSJmaWxsOm5vbmUiIGNsYXNzPSJlZGdlLXBhdHRlcm4tc29saWQgcmVsYXRpb24iIGlkPSJpZDE0IiBkPSJNMTQwNi4xNjcyNDM3NjczMTMsNzk5TDE0MDcuMDM1MjAzMTM5NDI3NSw3ODMuMzMzMzMzMzMzMzMzNEMxNDA3LjkwMzE2MjUxMTU0MjIsNzY3LjY2NjY2NjY2NjY2NjYsMTQwOS42MzkwODEyNTU3NzEsNzM2LjMzMzMzMzMzMzMzMzQsMTQwNy4xNzYxMzU3ODMzMDg2LDcxNi41QzE0MDQuNzEzMTkwMzEwODQ2Niw2OTYuNjY2NjY2NjY2NjY2NiwxMzk4LjA1MTM4MDYyMTY5MzIsNjg4LjMzMzMzMzMzMzMzMzQsMTM5NC43MjA0NzU3NzcxMTY3LDY4NC4xNjY2NjY2NjY2NjY2TDEzOTEuMzg5NTcwOTMyNTM5OCw2ODAiPjwvcGF0aD48cGF0aCBtYXJrZXItZW5kPSJ1cmwoI2NsYXNzRGlhZ3JhbS1kZXBlbmRlbmN5RW5kKSIgc3R5bGU9ImZpbGw6bm9uZSIgY2xhc3M9ImVkZ2UtcGF0dGVybi1zb2xpZCByZWxhdGlvbiIgaWQ9ImlkMTUiIGQ9Ik02OTEuMzk4NDM3NSwyNDEuMDUxODgyNTM0NTQ0NzVMNjAyLjE4NDI0NDc5MTY2NjYsMjY1Ljg3NjU2ODc3ODc4NzNDNTEyLjk3MDA1MjA4MzMzMzQsMjkwLjcwMTI1NTAyMzAyOTgzLDMzNC41NDE2NjY2NjY2NjY3LDM0MC4zNTA2Mjc1MTE1MTQ5LDI0NS4zMjc0NzM5NTgzMzMzNCwzNzEuMjU4NjQ3MDg5MDkwOEMxNTYuMTEzMjgxMjUsNDAyLjE2NjY2NjY2NjY2NjcsMTU2LjExMzI4MTI1LDQxNC4zMzMzMzMzMzMzMzMzLDE1Ni4xMTMyODEyNSw0MjAuNDE2NjY2NjY2NjY2N0wxNTYuMTEzMjgxMjUsNDI2LjUiPjwvcGF0aD48cGF0aCBtYXJrZXItZW5kPSJ1cmwoI2NsYXNzRGlhZ3JhbS1kZXBlbmRlbmN5RW5kKSIgc3R5bGU9ImZpbGw6bm9uZSIgY2xhc3M9ImVkZ2UtcGF0dGVybi1zb2xpZCByZWxhdGlvbiIgaWQ9ImlkMTYiIGQ9Ik04ODcuNDQ1MzEyNSwzNjVMODg3LjQ0NTMxMjUsMzY5LjE2NjY2NjY2NjY2NjdDODg3LjQ0NTMxMjUsMzczLjMzMzMzMzMzMzMzMzMsODg3LjQ0NTMxMjUsMzgxLjY2NjY2NjY2NjY2NjcsODg3LjQ0NTMxMjUsNDEyLjA4MzMzMzMzMzMzMzNDODg3LjQ0NTMxMjUsNDQyLjUsODg3LjQ0NTMxMjUsNDk1LDg4Ny40NDUzMTI1LDU0Ny41Qzg4Ny40NDUzMTI1LDYwMCw4ODcuNDQ1MzEyNSw2NTIuNSw4ODcuNDQ1MzEyNSw2ODguNjY2NjY2NjY2NjY2NkM4ODcuNDQ1MzEyNSw3MjQuODMzMzMzMzMzMzMzNCw4ODcuNDQ1MzEyNSw3NDQuNjY2NjY2NjY2NjY2Niw4ODcuNDQ1MzEyNSw3NTQuNTgzMzMzMzMzMzMzNEw4ODcuNDQ1MzEyNSw3NjQuNSI+PC9wYXRoPjxwYXRoIG1hcmtlci1lbmQ9InVybCgjY2xhc3NEaWFncmFtLWRlcGVuZGVuY3lFbmQpIiBzdHlsZT0iZmlsbDpub25lIiBjbGFzcz0iZWRnZS1wYXR0ZXJuLXNvbGlkIHJlbGF0aW9uIiBpZD0iaWQxNyIgZD0iTTEwODMuNDkyMTg3NSwyODYuNzM0NjM3MTQ1NjQ3MkwxMTE3LjE1NDYyMjM5NTgzMzMsMzAzLjk0NTUzMDk1NDcwNkMxMTUwLjgxNzA1NzI5MTY2NjcsMzIxLjE1NjQyNDc2Mzc2NDgsMTIxOC4xNDE5MjcwODMzMzMzLDM1NS41NzgyMTIzODE4ODI0LDEyNTEuODA0MzYxOTc5MTY2NywzNzYuOTU1NzcyODU3NjA3OEMxMjg1LjQ2Njc5Njg3NSwzOTguMzMzMzMzMzMzMzMzMywxMjg1LjQ2Njc5Njg3NSw0MDYuNjY2NjY2NjY2NjY2NywxMjg1LjQ2Njc5Njg3NSw0MTAuODMzMzMzMzMzMzMzM0wxMjg1LjQ2Njc5Njg3NSw0MTUiPjwvcGF0aD48L2c+PGcgY2xhc3M9ImVkZ2VMYWJlbHMiPjxnIGNsYXNzPSJlZGdlTGFiZWwiPjxnIHRyYW5zZm9ybT0idHJhbnNsYXRlKDAsIDApIiBjbGFzcz0ibGFiZWwiPjxyZWN0IGhlaWdodD0iMCIgd2lkdGg9IjAiIHJ5PSIwIiByeD0iMCI+PC9yZWN0Pjx0ZXh0IHN0eWxlPSIiPjx0c3BhbiBjbGFzcz0icm93IiB4PSIwIiBkeT0iMWVtIiB4bWw6c3BhY2U9InByZXNlcnZlIj48L3RzcGFuPjwvdGV4dD48L2c+PC9nPjxnIHRyYW5zZm9ybT0idHJhbnNsYXRlKDE0MS4xMTMyODEyNSwgNjg2KSIgY2xhc3M9ImVkZ2VUZXJtaW5hbHMiPjxnIHRyYW5zZm9ybT0idHJhbnNsYXRlKC0yLjg5MDYyNSwgLTYpIiBjbGFzcz0iaW5uZXIiPjx0ZXh0IHN0eWxlPSIiPjx0c3BhbiBjbGFzcz0icm93IiB4PSIwIiBkeT0iMWVtIiB4bWw6c3BhY2U9InByZXNlcnZlIj4xPC90c3Bhbj48L3RleHQ+PC9nPjwvZz48ZyB0cmFuc2Zvcm09InRyYW5zbGF0ZSgxNjcuNDUxMTUzMDM1MjcwODYsIDcwNi4zODc4NTgyNzg5OTkxKSIgY2xhc3M9ImVkZ2VUZXJtaW5hbHMiPjxnIHRyYW5zZm9ybT0idHJhbnNsYXRlKC04Ljk0NTMxMjUsIC02KSIgY2xhc3M9ImlubmVyIj48L2c+PHRleHQgc3R5bGU9IiI+PHRzcGFuIGNsYXNzPSJyb3ciIHg9IjAiIGR5PSIxZW0iIHhtbDpzcGFjZT0icHJlc2VydmUiPjAuLio8L3RzcGFuPjwvdGV4dD48L2c+PGcgY2xhc3M9ImVkZ2VMYWJlbCI+PGcgdHJhbnNmb3JtPSJ0cmFuc2xhdGUoMCwgMCkiIGNsYXNzPSJsYWJlbCI+PHJlY3QgaGVpZ2h0PSIwIiB3aWR0aD0iMCIgcnk9IjAiIHJ4PSIwIj48L3JlY3Q+PHRleHQgc3R5bGU9IiI+PHRzcGFuIGNsYXNzPSJyb3ciIHg9IjAiIGR5PSIxZW0iIHhtbDpzcGFjZT0icHJlc2VydmUiPjwvdHNwYW4+PC90ZXh0PjwvZz48L2c+PGcgdHJhbnNmb3JtPSJ0cmFuc2xhdGUoMTkwLjQ3MzY2NzkzODA2NDEsIDcxMS45OTkwNjkxODE3OTQ5KSIgY2xhc3M9ImVkZ2VUZXJtaW5hbHMiPjxnIHRyYW5zZm9ybT0idHJhbnNsYXRlKC0yLjg5MDYyNSwgLTYpIiBjbGFzcz0iaW5uZXIiPjx0ZXh0IHN0eWxlPSIiPjx0c3BhbiBjbGFzcz0icm93IiB4PSIwIiBkeT0iMWVtIiB4bWw6c3BhY2U9InByZXNlcnZlIj4xPC90c3Bhbj48L3RleHQ+PC9nPjwvZz48ZyB0cmFuc2Zvcm09InRyYW5zbGF0ZSgxNTMuODAyMzc0MDc1MDQyMTcsIDY4Mi43NTAxNzgzMTcwMTMpIiBjbGFzcz0iZWRnZVRlcm1pbmFscyI+PGcgdHJhbnNmb3JtPSJ0cmFuc2xhdGUoLTIuODkwNjI1LCAtNikiIGNsYXNzPSJpbm5lciI+PC9nPjx0ZXh0IHN0eWxlPSIiPjx0c3BhbiBjbGFzcz0icm93IiB4PSIwIiBkeT0iMWVtIiB4bWw6c3BhY2U9InByZXNlcnZlIj4xPC90c3Bhbj48L3RleHQ+PC9nPjxnIGNsYXNzPSJlZGdlTGFiZWwiPjxnIHRyYW5zZm9ybT0idHJhbnNsYXRlKDAsIDApIiBjbGFzcz0ibGFiZWwiPjxyZWN0IGhlaWdodD0iMCIgd2lkdGg9IjAiIHJ5PSIwIiByeD0iMCI+PC9yZWN0Pjx0ZXh0IHN0eWxlPSIiPjx0c3BhbiBjbGFzcz0icm93IiB4PSIwIiBkeT0iMWVtIiB4bWw6c3BhY2U9InByZXNlcnZlIj48L3RzcGFuPjwvdGV4dD48L2c+PC9nPjxnIHRyYW5zZm9ybT0idHJhbnNsYXRlKDE0Ny44MzY5MjQzNDc4MTI3LCAxMDU4LjEwMjE2OTg3MzgwMSkiIGNsYXNzPSJlZGdlVGVybWluYWxzIj48ZyB0cmFuc2Zvcm09InRyYW5zbGF0ZSgtMi44OTA2MjUsIC02KSIgY2xhc3M9ImlubmVyIj48dGV4dCBzdHlsZT0iIj48dHNwYW4gY2xhc3M9InJvdyIgeD0iMCIgZHk9IjFlbSIgeG1sOnNwYWNlPSJwcmVzZXJ2ZSI+MTwvdHNwYW4+PC90ZXh0PjwvZz48L2c+PGcgdHJhbnNmb3JtPSJ0cmFuc2xhdGUoOTEyLjU0ODE4MTE2OTc2NCwgMTE3NC42OTUzNjQ2MDY0MDU1KSIgY2xhc3M9ImVkZ2VUZXJtaW5hbHMiPjxnIHRyYW5zZm9ybT0idHJhbnNsYXRlKC04Ljk0NTMxMjUsIC02KSIgY2xhc3M9ImlubmVyIj48L2c+PHRleHQgc3R5bGU9IiI+PHRzcGFuIGNsYXNzPSJyb3ciIHg9IjAiIGR5PSIxZW0iIHhtbDpzcGFjZT0icHJlc2VydmUiPjAuLio8L3RzcGFuPjwvdGV4dD48L2c+PGcgY2xhc3M9ImVkZ2VMYWJlbCI+PGcgdHJhbnNmb3JtPSJ0cmFuc2xhdGUoMCwgMCkiIGNsYXNzPSJsYWJlbCI+PHJlY3QgaGVpZ2h0PSIwIiB3aWR0aD0iMCIgcnk9IjAiIHJ4PSIwIj48L3JlY3Q+PHRleHQgc3R5bGU9IiI+PHRzcGFuIGNsYXNzPSJyb3ciIHg9IjAiIGR5PSIxZW0iIHhtbDpzcGFjZT0icHJlc2VydmUiPjwvdHNwYW4+PC90ZXh0PjwvZz48L2c+PGcgdHJhbnNmb3JtPSJ0cmFuc2xhdGUoMTY2LjA0MTM2ODgzMjcxMjQ2LCAxMDYwLjE1NzQ3NDE5MTE1MTgpIiBjbGFzcz0iZWRnZVRlcm1pbmFscyI+PGcgdHJhbnNmb3JtPSJ0cmFuc2xhdGUoLTIuODkwNjI1LCAtNikiIGNsYXNzPSJpbm5lciI+PHRleHQgc3R5bGU9IiI+PHRzcGFuIGNsYXNzPSJyb3ciIHg9IjAiIGR5PSIxZW0iIHhtbDpzcGFjZT0icHJlc2VydmUiPjE8L3RzcGFuPjwvdGV4dD48L2c+PC9nPjxnIHRyYW5zZm9ybT0idHJhbnNsYXRlKDM0NS4wMzg3Mzg1NzQyNjA5LCAxMTQzLjQ4NjQyMDc0OTE0MDUpIiBjbGFzcz0iZWRnZVRlcm1pbmFscyI+PGcgdHJhbnNmb3JtPSJ0cmFuc2xhdGUoLTkuODEyNSwgLTYpIiBjbGFzcz0iaW5uZXIiPjwvZz48dGV4dCBzdHlsZT0iIj48dHNwYW4gY2xhc3M9InJvdyIgeD0iMCIgZHk9IjFlbSIgeG1sOnNwYWNlPSJwcmVzZXJ2ZSI+MC4uMTwvdHNwYW4+PC90ZXh0PjwvZz48ZyBjbGFzcz0iZWRnZUxhYmVsIj48ZyB0cmFuc2Zvcm09InRyYW5zbGF0ZSgwLCAwKSIgY2xhc3M9ImxhYmVsIj48cmVjdCBoZWlnaHQ9IjAiIHdpZHRoPSIwIiByeT0iMCIgcng9IjAiPjwvcmVjdD48dGV4dCBzdHlsZT0iIj48dHNwYW4gY2xhc3M9InJvdyIgeD0iMCIgZHk9IjFlbSIgeG1sOnNwYWNlPSJwcmVzZXJ2ZSI+PC90c3Bhbj48L3RleHQ+PC9nPjwvZz48ZyBjbGFzcz0iZWRnZUxhYmVsIj48ZyB0cmFuc2Zvcm09InRyYW5zbGF0ZSgwLCAwKSIgY2xhc3M9ImxhYmVsIj48cmVjdCBoZWlnaHQ9IjAiIHdpZHRoPSIwIiByeT0iMCIgcng9IjAiPjwvcmVjdD48dGV4dCBzdHlsZT0iIj48dHNwYW4gY2xhc3M9InJvdyIgeD0iMCIgZHk9IjFlbSIgeG1sOnNwYWNlPSJwcmVzZXJ2ZSI+PC90c3Bhbj48L3RleHQ+PC9nPjwvZz48ZyBjbGFzcz0iZWRnZUxhYmVsIj48ZyB0cmFuc2Zvcm09InRyYW5zbGF0ZSgwLCAwKSIgY2xhc3M9ImxhYmVsIj48cmVjdCBoZWlnaHQ9IjAiIHdpZHRoPSIwIiByeT0iMCIgcng9IjAiPjwvcmVjdD48dGV4dCBzdHlsZT0iIj48dHNwYW4gY2xhc3M9InJvdyIgeD0iMCIgZHk9IjFlbSIgeG1sOnNwYWNlPSJwcmVzZXJ2ZSI+PC90c3Bhbj48L3RleHQ+PC9nPjwvZz48ZyBjbGFzcz0iZWRnZUxhYmVsIj48ZyB0cmFuc2Zvcm09InRyYW5zbGF0ZSgwLCAwKSIgY2xhc3M9ImxhYmVsIj48cmVjdCBoZWlnaHQ9IjAiIHdpZHRoPSIwIiByeT0iMCIgcng9IjAiPjwvcmVjdD48dGV4dCBzdHlsZT0iIj48dHNwYW4gY2xhc3M9InJvdyIgeD0iMCIgZHk9IjFlbSIgeG1sOnNwYWNlPSJwcmVzZXJ2ZSI+PC90c3Bhbj48L3RleHQ+PC9nPjwvZz48ZyBjbGFzcz0iZWRnZUxhYmVsIj48ZyB0cmFuc2Zvcm09InRyYW5zbGF0ZSgwLCAwKSIgY2xhc3M9ImxhYmVsIj48cmVjdCBoZWlnaHQ9IjAiIHdpZHRoPSIwIiByeT0iMCIgcng9IjAiPjwvcmVjdD48dGV4dCBzdHlsZT0iIj48dHNwYW4gY2xhc3M9InJvdyIgeD0iMCIgZHk9IjFlbSIgeG1sOnNwYWNlPSJwcmVzZXJ2ZSI+PC90c3Bhbj48L3RleHQ+PC9nPjwvZz48ZyBjbGFzcz0iZWRnZUxhYmVsIj48ZyB0cmFuc2Zvcm09InRyYW5zbGF0ZSgwLCAwKSIgY2xhc3M9ImxhYmVsIj48cmVjdCBoZWlnaHQ9IjAiIHdpZHRoPSIwIiByeT0iMCIgcng9IjAiPjwvcmVjdD48dGV4dCBzdHlsZT0iIj48dHNwYW4gY2xhc3M9InJvdyIgeD0iMCIgZHk9IjFlbSIgeG1sOnNwYWNlPSJwcmVzZXJ2ZSI+PC90c3Bhbj48L3RleHQ+PC9nPjwvZz48ZyBjbGFzcz0iZWRnZUxhYmVsIj48ZyB0cmFuc2Zvcm09InRyYW5zbGF0ZSgwLCAwKSIgY2xhc3M9ImxhYmVsIj48cmVjdCBoZWlnaHQ9IjAiIHdpZHRoPSIwIiByeT0iMCIgcng9IjAiPjwvcmVjdD48dGV4dCBzdHlsZT0iIj48dHNwYW4gY2xhc3M9InJvdyIgeD0iMCIgZHk9IjFlbSIgeG1sOnNwYWNlPSJwcmVzZXJ2ZSI+PC90c3Bhbj48L3RleHQ+PC9nPjwvZz48ZyBjbGFzcz0iZWRnZUxhYmVsIj48ZyB0cmFuc2Zvcm09InRyYW5zbGF0ZSgwLCAwKSIgY2xhc3M9ImxhYmVsIj48cmVjdCBoZWlnaHQ9IjAiIHdpZHRoPSIwIiByeT0iMCIgcng9IjAiPjwvcmVjdD48dGV4dCBzdHlsZT0iIj48dHNwYW4gY2xhc3M9InJvdyIgeD0iMCIgZHk9IjFlbSIgeG1sOnNwYWNlPSJwcmVzZXJ2ZSI+PC90c3Bhbj48L3RleHQ+PC9nPjwvZz48ZyB0cmFuc2Zvcm09InRyYW5zbGF0ZSg4NzIuNDQ1MzEyNSwgMTAyNCkiIGNsYXNzPSJlZGdlVGVybWluYWxzIj48ZyB0cmFuc2Zvcm09InRyYW5zbGF0ZSgtMi44OTA2MjUsIC02KSIgY2xhc3M9ImlubmVyIj48dGV4dCBzdHlsZT0iIj48dHNwYW4gY2xhc3M9InJvdyIgeD0iMCIgZHk9IjFlbSIgeG1sOnNwYWNlPSJwcmVzZXJ2ZSI+MTwvdHNwYW4+PC90ZXh0PjwvZz48L2c+PGcgdHJhbnNmb3JtPSJ0cmFuc2xhdGUoOTI2Ljc3MTMzMjE5MjE1MTgsIDEwODcuOTI0OTg1NDk5NTI0MikiIGNsYXNzPSJlZGdlVGVybWluYWxzIj48ZyB0cmFuc2Zvcm09InRyYW5zbGF0ZSgtOC45NDUzMTI1LCAtNikiIGNsYXNzPSJpbm5lciI+PC9nPjx0ZXh0IHN0eWxlPSIiPjx0c3BhbiBjbGFzcz0icm93IiB4PSIwIiBkeT0iMWVtIiB4bWw6c3BhY2U9InByZXNlcnZlIj4wLi4qPC90c3Bhbj48L3RleHQ+PC9nPjxnIGNsYXNzPSJlZGdlTGFiZWwiPjxnIHRyYW5zZm9ybT0idHJhbnNsYXRlKDAsIDApIiBjbGFzcz0ibGFiZWwiPjxyZWN0IGhlaWdodD0iMCIgd2lkdGg9IjAiIHJ5PSIwIiByeD0iMCI+PC9yZWN0Pjx0ZXh0IHN0eWxlPSIiPjx0c3BhbiBjbGFzcz0icm93IiB4PSIwIiBkeT0iMWVtIiB4bWw6c3BhY2U9InByZXNlcnZlIj48L3RzcGFuPjwvdGV4dD48L2c+PC9nPjxnIHRyYW5zZm9ybT0idHJhbnNsYXRlKDEyNzMuMzYwODM2Njg5NTY4LCA2OTkuMTAxNzQ5MjExMTE1NykiIGNsYXNzPSJlZGdlVGVybWluYWxzIj48ZyB0cmFuc2Zvcm09InRyYW5zbGF0ZSgtMi44OTA2MjUsIC02KSIgY2xhc3M9ImlubmVyIj48dGV4dCBzdHlsZT0iIj48dHNwYW4gY2xhc3M9InJvdyIgeD0iMCIgZHk9IjFlbSIgeG1sOnNwYWNlPSJwcmVzZXJ2ZSI+MTwvdHNwYW4+PC90ZXh0PjwvZz48L2c+PGcgdHJhbnNmb3JtPSJ0cmFuc2xhdGUoMTM0My45OTQ3OTg5MjMyOTAzLCA3NzEuMTY5NTkyOTM2MTMzMikiIGNsYXNzPSJlZGdlVGVybWluYWxzIj48ZyB0cmFuc2Zvcm09InRyYW5zbGF0ZSgtOC45NDUzMTI1LCAtNikiIGNsYXNzPSJpbm5lciI+PC9nPjx0ZXh0IHN0eWxlPSIiPjx0c3BhbiBjbGFzcz0icm93IiB4PSIwIiBkeT0iMWVtIiB4bWw6c3BhY2U9InByZXNlcnZlIj4wLi4qPC90c3Bhbj48L3RleHQ+PC9nPjxnIGNsYXNzPSJlZGdlTGFiZWwiPjxnIHRyYW5zZm9ybT0idHJhbnNsYXRlKDAsIDApIiBjbGFzcz0ibGFiZWwiPjxyZWN0IGhlaWdodD0iMCIgd2lkdGg9IjAiIHJ5PSIwIiByeD0iMCI+PC9yZWN0Pjx0ZXh0IHN0eWxlPSIiPjx0c3BhbiBjbGFzcz0icm93IiB4PSIwIiBkeT0iMWVtIiB4bWw6c3BhY2U9InByZXNlcnZlIj48L3RzcGFuPjwvdGV4dD48L2c+PC9nPjxnIHRyYW5zZm9ybT0idHJhbnNsYXRlKDE0MjIuMTEyMzIxMTM2NDU4OCwgNzgyLjM1NjU0NzYwMjk3NzMpIiBjbGFzcz0iZWRnZVRlcm1pbmFscyI+PGcgdHJhbnNmb3JtPSJ0cmFuc2xhdGUoLTIuODkwNjI1LCAtNikiIGNsYXNzPSJpbm5lciI+PHRleHQgc3R5bGU9IiI+PHRzcGFuIGNsYXNzPSJyb3ciIHg9IjAiIGR5PSIxZW0iIHhtbDpzcGFjZT0icHJlc2VydmUiPjE8L3RzcGFuPjwvdGV4dD48L2c+PC9nPjxnIHRyYW5zZm9ybT0idHJhbnNsYXRlKDEzODQuMDU3OTYyMzEzODMxNSwgNjk3LjY2MzA2ODYyMjQ5MTYpIiBjbGFzcz0iZWRnZVRlcm1pbmFscyI+PGcgdHJhbnNmb3JtPSJ0cmFuc2xhdGUoLTIuODkwNjI1LCAtNikiIGNsYXNzPSJpbm5lciI+PC9nPjx0ZXh0IHN0eWxlPSIiPjx0c3BhbiBjbGFzcz0icm93IiB4PSIwIiBkeT0iMWVtIiB4bWw6c3BhY2U9InByZXNlcnZlIj4xPC90c3Bhbj48L3RleHQ+PC9nPjxnIGNsYXNzPSJlZGdlTGFiZWwiPjxnIHRyYW5zZm9ybT0idHJhbnNsYXRlKDAsIDApIiBjbGFzcz0ibGFiZWwiPjxyZWN0IGhlaWdodD0iMCIgd2lkdGg9IjAiIHJ5PSIwIiByeD0iMCI+PC9yZWN0Pjx0ZXh0IHN0eWxlPSIiPjx0c3BhbiBjbGFzcz0icm93IiB4PSIwIiBkeT0iMWVtIiB4bWw6c3BhY2U9InByZXNlcnZlIj48L3RzcGFuPjwvdGV4dD48L2c+PC9nPjxnIHRyYW5zZm9ybT0idHJhbnNsYXRlKDY3MC41MTc4NTA5NjkyMjIyLCAyMzEuMjkyMjE1MjE3OTQ1MzcpIiBjbGFzcz0iZWRnZVRlcm1pbmFscyI+PGcgdHJhbnNmb3JtPSJ0cmFuc2xhdGUoLTIuODkwNjI1LCAtNikiIGNsYXNzPSJpbm5lciI+PHRleHQgc3R5bGU9IiI+PHRzcGFuIGNsYXNzPSJyb3ciIHg9IjAiIGR5PSIxZW0iIHhtbDpzcGFjZT0icHJlc2VydmUiPjE8L3RzcGFuPjwvdGV4dD48L2c+PC9nPjxnIHRyYW5zZm9ybT0idHJhbnNsYXRlKDE2Ni4xMTMyODEyNSwgNDA0KSIgY2xhc3M9ImVkZ2VUZXJtaW5hbHMiPjxnIHRyYW5zZm9ybT0idHJhbnNsYXRlKC04Ljk0NTMxMjUsIC02KSIgY2xhc3M9ImlubmVyIj48L2c+PHRleHQgc3R5bGU9IiI+PHRzcGFuIGNsYXNzPSJyb3ciIHg9IjAiIGR5PSIxZW0iIHhtbDpzcGFjZT0icHJlc2VydmUiPjAuLio8L3RzcGFuPjwvdGV4dD48L2c+PGcgY2xhc3M9ImVkZ2VMYWJlbCI+PGcgdHJhbnNmb3JtPSJ0cmFuc2xhdGUoMCwgMCkiIGNsYXNzPSJsYWJlbCI+PHJlY3QgaGVpZ2h0PSIwIiB3aWR0aD0iMCIgcnk9IjAiIHJ4PSIwIj48L3JlY3Q+PHRleHQgc3R5bGU9IiI+PHRzcGFuIGNsYXNzPSJyb3ciIHg9IjAiIGR5PSIxZW0iIHhtbDpzcGFjZT0icHJlc2VydmUiPjwvdHNwYW4+PC90ZXh0PjwvZz48L2c+PGcgdHJhbnNmb3JtPSJ0cmFuc2xhdGUoODcyLjQ0NTMxMjUsIDM4Mi41KSIgY2xhc3M9ImVkZ2VUZXJtaW5hbHMiPjxnIHRyYW5zZm9ybT0idHJhbnNsYXRlKC0yLjg5MDYyNSwgLTYpIiBjbGFzcz0iaW5uZXIiPjx0ZXh0IHN0eWxlPSIiPjx0c3BhbiBjbGFzcz0icm93IiB4PSIwIiBkeT0iMWVtIiB4bWw6c3BhY2U9InByZXNlcnZlIj4xPC90c3Bhbj48L3RleHQ+PC9nPjwvZz48ZyB0cmFuc2Zvcm09InRyYW5zbGF0ZSg4OTcuNDQ1MzEyNSwgNzQyKSIgY2xhc3M9ImVkZ2VUZXJtaW5hbHMiPjxnIHRyYW5zZm9ybT0idHJhbnNsYXRlKC04Ljk0NTMxMjUsIC02KSIgY2xhc3M9ImlubmVyIj48L2c+PHRleHQgc3R5bGU9IiI+PHRzcGFuIGNsYXNzPSJyb3ciIHg9IjAiIGR5PSIxZW0iIHhtbDpzcGFjZT0icHJlc2VydmUiPjAuLio8L3RzcGFuPjwvdGV4dD48L2c+PGcgY2xhc3M9ImVkZ2VMYWJlbCI+PGcgdHJhbnNmb3JtPSJ0cmFuc2xhdGUoMCwgMCkiIGNsYXNzPSJsYWJlbCI+PHJlY3QgaGVpZ2h0PSIwIiB3aWR0aD0iMCIgcnk9IjAiIHJ4PSIwIj48L3JlY3Q+PHRleHQgc3R5bGU9IiI+PHRzcGFuIGNsYXNzPSJyb3ciIHg9IjAiIGR5PSIxZW0iIHhtbDpzcGFjZT0icHJlc2VydmUiPjwvdHNwYW4+PC90ZXh0PjwvZz48L2c+PGcgdHJhbnNmb3JtPSJ0cmFuc2xhdGUoMTA5Mi4yNDUyOTE2NDg4MDc2LCAzMDguMDU2NzY1NzM5MjAyOTQpIiBjbGFzcz0iZWRnZVRlcm1pbmFscyI+PGcgdHJhbnNmb3JtPSJ0cmFuc2xhdGUoLTIuODkwNjI1LCAtNikiIGNsYXNzPSJpbm5lciI+PHRleHQgc3R5bGU9IiI+PHRzcGFuIGNsYXNzPSJyb3ciIHg9IjAiIGR5PSIxZW0iIHhtbDpzcGFjZT0icHJlc2VydmUiPjE8L3RzcGFuPjwvdGV4dD48L2c+PC9nPjxnIHRyYW5zZm9ybT0idHJhbnNsYXRlKDEyOTAuMzc3MjIwNjAyNjYwNCwgMzkwLjg5NjY3MDYzMzkyMjQ0KSIgY2xhc3M9ImVkZ2VUZXJtaW5hbHMiPjxnIHRyYW5zZm9ybT0idHJhbnNsYXRlKC04Ljk0NTMxMjUsIC02KSIgY2xhc3M9ImlubmVyIj48L2c+PHRleHQgc3R5bGU9IiI+PHRzcGFuIGNsYXNzPSJyb3ciIHg9IjAiIGR5PSIxZW0iIHhtbDpzcGFjZT0icHJlc2VydmUiPjAuLio8L3RzcGFuPjwvdGV4dD48L2c+PC9nPjxnIGNsYXNzPSJub2RlcyI+PGcgdHJhbnNmb3JtPSJ0cmFuc2xhdGUoMTU2LjExMzI4MTI1LCA1NDcuNSkiIGlkPSJjbGFzc2lkLVVzZXItMCIgY2xhc3M9Im5vZGUgZGVmYXVsdCI+PHJlY3QgaGVpZ2h0PSIyNDIiIHdpZHRoPSIyOTYuMjI2NTYyNSIgeT0iLTEyMSIgeD0iLTE0OC4xMTMyODEyNSIgY2xhc3M9Im91dGVyIHRpdGxlLXN0YXRlIj48L3JlY3Q+PGxpbmUgeTI9Ii05MCIgeTE9Ii05MCIgeDI9IjE0OC4xMTMyODEyNSIgeDE9Ii0xNDguMTEzMjgxMjUiIGNsYXNzPSJkaXZpZGVyIj48L2xpbmU+PGxpbmUgeTI9Ii01IiB5MT0iLTUiIHgyPSIxNDguMTEzMjgxMjUiIHgxPSItMTQ4LjExMzI4MTI1IiBjbGFzcz0iZGl2aWRlciI+PC9saW5lPjxnIGNsYXNzPSJsYWJlbCI+PHRleHQgc3R5bGU9IiI+PHRzcGFuIGNsYXNzPSJ0aXRsZS1yb3ciIHg9IjAiIGR5PSIxZW0iIHhtbDpzcGFjZT0icHJlc2VydmUiPjwvdHNwYW4+PC90ZXh0Pjx0ZXh0IHRyYW5zZm9ybT0idHJhbnNsYXRlKCAtMTcuNDY0ODQzNzUsIC0xMTMuNSkiIGNsYXNzPSJjbGFzc1RpdGxlIiBzdHlsZT0iIj48dHNwYW4gY2xhc3M9InRpdGxlLXJvdyIgeD0iMCIgZHk9IjFlbSIgeG1sOnNwYWNlPSJwcmVzZXJ2ZSI+VXNlcjwvdHNwYW4+PC90ZXh0Pjx0ZXh0IHRyYW5zZm9ybT0idHJhbnNsYXRlKCAtMTQwLjYxMzI4MTI1LCAtNzguNSkiIHN0eWxlPSIiPjx0c3BhbiBjbGFzcz0idGl0bGUtcm93IiB4PSIwIiBkeT0iMWVtIiB4bWw6c3BhY2U9InByZXNlcnZlIj4tY2l0aXplbl9pZDogc3RyPC90c3Bhbj48L3RleHQ+PHRleHQgdHJhbnNmb3JtPSJ0cmFuc2xhdGUoIC0xNDAuNjEzMjgxMjUsIC01NS41KSIgc3R5bGU9IiI+PHRzcGFuIGNsYXNzPSJ0aXRsZS1yb3ciIHg9IjAiIGR5PSIxZW0iIHhtbDpzcGFjZT0icHJlc2VydmUiPi1uYW1lOiBzdHI8L3RzcGFuPjwvdGV4dD48dGV4dCB0cmFuc2Zvcm09InRyYW5zbGF0ZSggLTE0MC42MTMyODEyNSwgLTMyLjUpIiBzdHlsZT0iIj48dHNwYW4gY2xhc3M9InRpdGxlLXJvdyIgeD0iMCIgZHk9IjFlbSIgeG1sOnNwYWNlPSJwcmVzZXJ2ZSI+LWFjY291bnRzOiBsaXN0PC90c3Bhbj48L3RleHQ+PHRleHQgdHJhbnNmb3JtPSJ0cmFuc2xhdGUoIC0xNDAuNjEzMjgxMjUsIDIuNSkiIHN0eWxlPSIiPjx0c3BhbiBjbGFzcz0idGl0bGUtcm93IiB4PSIwIiBkeT0iMWVtIiB4bWw6c3BhY2U9InByZXNlcnZlIj4rY2l0aXplbl9pZCgpPC90c3Bhbj48L3RleHQ+PHRleHQgdHJhbnNmb3JtPSJ0cmFuc2xhdGUoIC0xNDAuNjEzMjgxMjUsIDI1LjUpIiBzdHlsZT0iIj48dHNwYW4gY2xhc3M9InRpdGxlLXJvdyIgeD0iMCIgZHk9IjFlbSIgeG1sOnNwYWNlPSJwcmVzZXJ2ZSI+K2Z1bGxfbmFtZSgpPC90c3Bhbj48L3RleHQ+PHRleHQgdHJhbnNmb3JtPSJ0cmFuc2xhdGUoIC0xNDAuNjEzMjgxMjUsIDQ4LjUpIiBzdHlsZT0iIj48dHNwYW4gY2xhc3M9InRpdGxlLXJvdyIgeD0iMCIgZHk9IjFlbSIgeG1sOnNwYWNlPSJwcmVzZXJ2ZSI+K2FjY291bnRzKCk8L3RzcGFuPjwvdGV4dD48dGV4dCB0cmFuc2Zvcm09InRyYW5zbGF0ZSggLTE0MC42MTMyODEyNSwgNzEuNSkiIHN0eWxlPSIiPjx0c3BhbiBjbGFzcz0idGl0bGUtcm93IiB4PSIwIiBkeT0iMWVtIiB4bWw6c3BhY2U9InByZXNlcnZlIj4rYWRkX2FjY291bnQoYWNjb3VudDogQWNjb3VudCk8L3RzcGFuPjwvdGV4dD48dGV4dCB0cmFuc2Zvcm09InRyYW5zbGF0ZSggLTE0MC42MTMyODEyNSwgOTQuNSkiIHN0eWxlPSIiPjx0c3BhbiBjbGFzcz0idGl0bGUtcm93IiB4PSIwIiBkeT0iMWVtIiB4bWw6c3BhY2U9InByZXNlcnZlIj4rc2VhcmNoX2FjY291bnQoYWNjb3VudF9udW1iZXI6IHN0cik8L3RzcGFuPjwvdGV4dD48L2c+PC9nPjxnIHRyYW5zZm9ybT0idHJhbnNsYXRlKDE3Ni4xMTMyODEyNSwgODg1LjUpIiBpZD0iY2xhc3NpZC1BY2NvdW50LTEiIGNsYXNzPSJub2RlIGRlZmF1bHQiPjxyZWN0IGhlaWdodD0iMzExIiB3aWR0aD0iMzI4LjIxODc1IiB5PSItMTU1LjUiIHg9Ii0xNjQuMTA5Mzc1IiBjbGFzcz0ib3V0ZXIgdGl0bGUtc3RhdGUiPjwvcmVjdD48bGluZSB5Mj0iLTEyNC41IiB5MT0iLTEyNC41IiB4Mj0iMTY0LjEwOTM3NSIgeDE9Ii0xNjQuMTA5Mzc1IiBjbGFzcz0iZGl2aWRlciI+PC9saW5lPjxsaW5lIHkyPSItMTYuNSIgeTE9Ii0xNi41IiB4Mj0iMTY0LjEwOTM3NSIgeDE9Ii0xNjQuMTA5Mzc1IiBjbGFzcz0iZGl2aWRlciI+PC9saW5lPjxnIGNsYXNzPSJsYWJlbCI+PHRleHQgc3R5bGU9IiI+PHRzcGFuIGNsYXNzPSJ0aXRsZS1yb3ciIHg9IjAiIGR5PSIxZW0iIHhtbDpzcGFjZT0icHJlc2VydmUiPjwvdHNwYW4+PC90ZXh0Pjx0ZXh0IHRyYW5zZm9ybT0idHJhbnNsYXRlKCAtMzEuMjMwNDY4NzUsIC0xNDgpIiBjbGFzcz0iY2xhc3NUaXRsZSIgc3R5bGU9IiI+PHRzcGFuIGNsYXNzPSJ0aXRsZS1yb3ciIHg9IjAiIGR5PSIxZW0iIHhtbDpzcGFjZT0icHJlc2VydmUiPkFjY291bnQ8L3RzcGFuPjwvdGV4dD48dGV4dCB0cmFuc2Zvcm09InRyYW5zbGF0ZSggLTE1Ni42MDkzNzUsIC0xMTMpIiBzdHlsZT0iIj48dHNwYW4gY2xhc3M9InRpdGxlLXJvdyIgeD0iMCIgZHk9IjFlbSIgeG1sOnNwYWNlPSJwcmVzZXJ2ZSI+LWFjY291bnRfbnVtYmVyOiBzdHI8L3RzcGFuPjwvdGV4dD48dGV4dCB0cmFuc2Zvcm09InRyYW5zbGF0ZSggLTE1Ni42MDkzNzUsIC05MCkiIHN0eWxlPSIiPjx0c3BhbiBjbGFzcz0idGl0bGUtcm93IiB4PSIwIiBkeT0iMWVtIiB4bWw6c3BhY2U9InByZXNlcnZlIj4tb3duZXI6IFVzZXI8L3RzcGFuPjwvdGV4dD48dGV4dCB0cmFuc2Zvcm09InRyYW5zbGF0ZSggLTE1Ni42MDkzNzUsIC02NykiIHN0eWxlPSIiPjx0c3BhbiBjbGFzcz0idGl0bGUtcm93IiB4PSIwIiBkeT0iMWVtIiB4bWw6c3BhY2U9InByZXNlcnZlIj4tYmFsYW5jZTogZmxvYXQ8L3RzcGFuPjwvdGV4dD48dGV4dCB0cmFuc2Zvcm09InRyYW5zbGF0ZSggLTE1Ni42MDkzNzUsIC00NCkiIHN0eWxlPSIiPjx0c3BhbiBjbGFzcz0idGl0bGUtcm93IiB4PSIwIiBkeT0iMWVtIiB4bWw6c3BhY2U9InByZXNlcnZlIj4tdHJhbnNhY3Rpb25zOiBsaXN0PC90c3Bhbj48L3RleHQ+PHRleHQgdHJhbnNmb3JtPSJ0cmFuc2xhdGUoIC0xNTYuNjA5Mzc1LCAtOSkiIHN0eWxlPSIiPjx0c3BhbiBjbGFzcz0idGl0bGUtcm93IiB4PSIwIiBkeT0iMWVtIiB4bWw6c3BhY2U9InByZXNlcnZlIj4rYWNjb3VudF9udW1iZXIoKTwvdHNwYW4+PC90ZXh0Pjx0ZXh0IHRyYW5zZm9ybT0idHJhbnNsYXRlKCAtMTU2LjYwOTM3NSwgMTQpIiBzdHlsZT0iIj48dHNwYW4gY2xhc3M9InRpdGxlLXJvdyIgeD0iMCIgZHk9IjFlbSIgeG1sOnNwYWNlPSJwcmVzZXJ2ZSI+K293bmVyKCk8L3RzcGFuPjwvdGV4dD48dGV4dCB0cmFuc2Zvcm09InRyYW5zbGF0ZSggLTE1Ni42MDkzNzUsIDM3KSIgc3R5bGU9IiI+PHRzcGFuIGNsYXNzPSJ0aXRsZS1yb3ciIHg9IjAiIGR5PSIxZW0iIHhtbDpzcGFjZT0icHJlc2VydmUiPithbW91bnQoKTwvdHNwYW4+PC90ZXh0Pjx0ZXh0IHRyYW5zZm9ybT0idHJhbnNsYXRlKCAtMTU2LjYwOTM3NSwgNjApIiBzdHlsZT0iIj48dHNwYW4gY2xhc3M9InRpdGxlLXJvdyIgeD0iMCIgZHk9IjFlbSIgeG1sOnNwYWNlPSJwcmVzZXJ2ZSI+K3RyYW5zYWN0aW9ucygpPC90c3Bhbj48L3RleHQ+PHRleHQgdHJhbnNmb3JtPSJ0cmFuc2xhdGUoIC0xNTYuNjA5Mzc1LCA4MykiIHN0eWxlPSIiPjx0c3BhbiBjbGFzcz0idGl0bGUtcm93IiB4PSIwIiBkeT0iMWVtIiB4bWw6c3BhY2U9InByZXNlcnZlIj4rYW1vdW50KGJhbGFuY2U6IGZsb2F0KTwvdHNwYW4+PC90ZXh0Pjx0ZXh0IHRyYW5zZm9ybT0idHJhbnNsYXRlKCAtMTU2LjYwOTM3NSwgMTA2KSIgc3R5bGU9IiI+PHRzcGFuIGNsYXNzPSJ0aXRsZS1yb3ciIHg9IjAiIGR5PSIxZW0iIHhtbDpzcGFjZT0icHJlc2VydmUiPithZGRfdHJhbnNhY3Rpb24odHJhbnNhY3Rpb246IFRyYW5zYWN0aW9uKTwvdHNwYW4+PC90ZXh0Pjx0ZXh0IHRyYW5zZm9ybT0idHJhbnNsYXRlKCAtMTU2LjYwOTM3NSwgMTI5KSIgc3R5bGU9IiI+PHRzcGFuIGNsYXNzPSJ0aXRsZS1yb3ciIHg9IjAiIGR5PSIxZW0iIHhtbDpzcGFjZT0icHJlc2VydmUiPit0cmFuc2ZlcihhbW91bnQ6IGZsb2F0LCByZWNlaXZlcjogQWNjb3VudCk8L3RzcGFuPjwvdGV4dD48L2c+PC9nPjxnIHRyYW5zZm9ybT0idHJhbnNsYXRlKDM3Ni42Nzk2ODc1LCAxNDU4KSIgaWQ9ImNsYXNzaWQtU2F2aW5nc0FjY291bnQtMiIgY2xhc3M9Im5vZGUgZGVmYXVsdCI+PHJlY3QgaGVpZ2h0PSIxNTAiIHdpZHRoPSIxOTYuMjg5MDYyNSIgeT0iLTc1IiB4PSItOTguMTQ0NTMxMjUiIGNsYXNzPSJvdXRlciB0aXRsZS1zdGF0ZSI+PC9yZWN0PjxsaW5lIHkyPSItNDQiIHkxPSItNDQiIHgyPSI5OC4xNDQ1MzEyNSIgeDE9Ii05OC4xNDQ1MzEyNSIgY2xhc3M9ImRpdmlkZXIiPjwvbGluZT48bGluZSB5Mj0iNDEiIHkxPSI0MSIgeDI9Ijk4LjE0NDUzMTI1IiB4MT0iLTk4LjE0NDUzMTI1IiBjbGFzcz0iZGl2aWRlciI+PC9saW5lPjxnIGNsYXNzPSJsYWJlbCI+PHRleHQgc3R5bGU9IiI+PHRzcGFuIGNsYXNzPSJ0aXRsZS1yb3ciIHg9IjAiIGR5PSIxZW0iIHhtbDpzcGFjZT0icHJlc2VydmUiPjwvdHNwYW4+PC90ZXh0Pjx0ZXh0IHRyYW5zZm9ybT0idHJhbnNsYXRlKCAtNTguMTIxMDkzNzUsIC02Ny41KSIgY2xhc3M9ImNsYXNzVGl0bGUiIHN0eWxlPSIiPjx0c3BhbiBjbGFzcz0idGl0bGUtcm93IiB4PSIwIiBkeT0iMWVtIiB4bWw6c3BhY2U9InByZXNlcnZlIj5TYXZpbmdzQWNjb3VudDwvdHNwYW4+PC90ZXh0Pjx0ZXh0IHRyYW5zZm9ybT0idHJhbnNsYXRlKCAtOTAuNjQ0NTMxMjUsIC0zMi41KSIgc3R5bGU9IiI+PHRzcGFuIGNsYXNzPSJ0aXRsZS1yb3ciIHg9IjAiIGR5PSIxZW0iIHhtbDpzcGFjZT0icHJlc2VydmUiPitpbnRlcmVzdF9yYXRlOiBmbG9hdDwvdHNwYW4+PC90ZXh0Pjx0ZXh0IHRyYW5zZm9ybT0idHJhbnNsYXRlKCAtOTAuNjQ0NTMxMjUsIC05LjUpIiBzdHlsZT0iIj48dHNwYW4gY2xhc3M9InRpdGxlLXJvdyIgeD0iMCIgZHk9IjFlbSIgeG1sOnNwYWNlPSJwcmVzZXJ2ZSI+K3R5cGU6IHN0cjwvdHNwYW4+PC90ZXh0Pjx0ZXh0IHRyYW5zZm9ybT0idHJhbnNsYXRlKCAtOTAuNjQ0NTMxMjUsIDEzLjUpIiBzdHlsZT0iIj48dHNwYW4gY2xhc3M9InRpdGxlLXJvdyIgeD0iMCIgZHk9IjFlbSIgeG1sOnNwYWNlPSJwcmVzZXJ2ZSI+K2NhcmQ6IENhcmQgfCBOb25lPC90c3Bhbj48L3RleHQ+PHRleHQgdHJhbnNmb3JtPSJ0cmFuc2xhdGUoIC05MC42NDQ1MzEyNSwgNDguNSkiIHN0eWxlPSIiPjx0c3BhbiBjbGFzcz0idGl0bGUtcm93IiB4PSIwIiBkeT0iMWVtIiB4bWw6c3BhY2U9InByZXNlcnZlIj4rY2FyZChjYXJkOiBDYXJkIHwgTm9uZSk8L3RzcGFuPjwvdGV4dD48L2c+PC9nPjxnIHRyYW5zZm9ybT0idHJhbnNsYXRlKDYxMy4zMzU5Mzc1LCA1NDcuNSkiIGlkPSJjbGFzc2lkLUZpeERlcG9zaXRBY2NvdW50LTMiIGNsYXNzPSJub2RlIGRlZmF1bHQiPjxyZWN0IGhlaWdodD0iMTA0IiB3aWR0aD0iMTYyLjkzNzUiIHk9Ii01MiIgeD0iLTgxLjQ2ODc1IiBjbGFzcz0ib3V0ZXIgdGl0bGUtc3RhdGUiPjwvcmVjdD48bGluZSB5Mj0iLTIxIiB5MT0iLTIxIiB4Mj0iODEuNDY4NzUiIHgxPSItODEuNDY4NzUiIGNsYXNzPSJkaXZpZGVyIj48L2xpbmU+PGxpbmUgeTI9IjQxIiB5MT0iNDEiIHgyPSI4MS40Njg3NSIgeDE9Ii04MS40Njg3NSIgY2xhc3M9ImRpdmlkZXIiPjwvbGluZT48ZyBjbGFzcz0ibGFiZWwiPjx0ZXh0IHN0eWxlPSIiPjx0c3BhbiBjbGFzcz0idGl0bGUtcm93IiB4PSIwIiBkeT0iMWVtIiB4bWw6c3BhY2U9InByZXNlcnZlIj48L3RzcGFuPjwvdGV4dD48dGV4dCB0cmFuc2Zvcm09InRyYW5zbGF0ZSggLTcwLjEzMjgxMjUsIC00NC41KSIgY2xhc3M9ImNsYXNzVGl0bGUiIHN0eWxlPSIiPjx0c3BhbiBjbGFzcz0idGl0bGUtcm93IiB4PSIwIiBkeT0iMWVtIiB4bWw6c3BhY2U9InByZXNlcnZlIj5GaXhEZXBvc2l0QWNjb3VudDwvdHNwYW4+PC90ZXh0Pjx0ZXh0IHRyYW5zZm9ybT0idHJhbnNsYXRlKCAtNzMuOTY4NzUsIC05LjUpIiBzdHlsZT0iIj48dHNwYW4gY2xhc3M9InRpdGxlLXJvdyIgeD0iMCIgZHk9IjFlbSIgeG1sOnNwYWNlPSJwcmVzZXJ2ZSI+K2ludGVyZXN0X3JhdGU6IGZsb2F0PC90c3Bhbj48L3RleHQ+PHRleHQgdHJhbnNmb3JtPSJ0cmFuc2xhdGUoIC03My45Njg3NSwgMTMuNSkiIHN0eWxlPSIiPjx0c3BhbiBjbGFzcz0idGl0bGUtcm93IiB4PSIwIiBkeT0iMWVtIiB4bWw6c3BhY2U9InByZXNlcnZlIj4rdHlwZTogc3RyPC90c3Bhbj48L3RleHQ+PC9nPjwvZz48ZyB0cmFuc2Zvcm09InRyYW5zbGF0ZSg0MzAuNjA1NDY4NzUsIDEyMTIpIiBpZD0iY2xhc3NpZC1DYXJkLTQiIGNsYXNzPSJub2RlIGRlZmF1bHQiPjxyZWN0IGhlaWdodD0iMjQyIiB3aWR0aD0iMTQ1LjcwMzEyNSIgeT0iLTEyMSIgeD0iLTcyLjg1MTU2MjUiIGNsYXNzPSJvdXRlciB0aXRsZS1zdGF0ZSI+PC9yZWN0PjxsaW5lIHkyPSItOTAiIHkxPSItOTAiIHgyPSI3Mi44NTE1NjI1IiB4MT0iLTcyLjg1MTU2MjUiIGNsYXNzPSJkaXZpZGVyIj48L2xpbmU+PGxpbmUgeTI9Ii01IiB5MT0iLTUiIHgyPSI3Mi44NTE1NjI1IiB4MT0iLTcyLjg1MTU2MjUiIGNsYXNzPSJkaXZpZGVyIj48L2xpbmU+PGcgY2xhc3M9ImxhYmVsIj48dGV4dCBzdHlsZT0iIj48dHNwYW4gY2xhc3M9InRpdGxlLXJvdyIgeD0iMCIgZHk9IjFlbSIgeG1sOnNwYWNlPSJwcmVzZXJ2ZSI+PC90c3Bhbj48L3RleHQ+PHRleHQgdHJhbnNmb3JtPSJ0cmFuc2xhdGUoIC0xNy4yMTg3NSwgLTExMy41KSIgY2xhc3M9ImNsYXNzVGl0bGUiIHN0eWxlPSIiPjx0c3BhbiBjbGFzcz0idGl0bGUtcm93IiB4PSIwIiBkeT0iMWVtIiB4bWw6c3BhY2U9InByZXNlcnZlIj5DYXJkPC90c3Bhbj48L3RleHQ+PHRleHQgdHJhbnNmb3JtPSJ0cmFuc2xhdGUoIC02NS4zNTE1NjI1LCAtNzguNSkiIHN0eWxlPSIiPjx0c3BhbiBjbGFzcz0idGl0bGUtcm93IiB4PSIwIiBkeT0iMWVtIiB4bWw6c3BhY2U9InByZXNlcnZlIj4tY2FyZF9ubzogc3RyPC90c3Bhbj48L3RleHQ+PHRleHQgdHJhbnNmb3JtPSJ0cmFuc2xhdGUoIC02NS4zNTE1NjI1LCAtNTUuNSkiIHN0eWxlPSIiPjx0c3BhbiBjbGFzcz0idGl0bGUtcm93IiB4PSIwIiBkeT0iMWVtIiB4bWw6c3BhY2U9InByZXNlcnZlIj4tYWNjb3VudDogQWNjb3VudDwvdHNwYW4+PC90ZXh0Pjx0ZXh0IHRyYW5zZm9ybT0idHJhbnNsYXRlKCAtNjUuMzUxNTYyNSwgLTMyLjUpIiBzdHlsZT0iIj48dHNwYW4gY2xhc3M9InRpdGxlLXJvdyIgeD0iMCIgZHk9IjFlbSIgeG1sOnNwYWNlPSJwcmVzZXJ2ZSI+LXBpbjogc3RyPC90c3Bhbj48L3RleHQ+PHRleHQgdHJhbnNmb3JtPSJ0cmFuc2xhdGUoIC02NS4zNTE1NjI1LCAyLjUpIiBzdHlsZT0iIj48dHNwYW4gY2xhc3M9InRpdGxlLXJvdyIgeD0iMCIgZHk9IjFlbSIgeG1sOnNwYWNlPSJwcmVzZXJ2ZSI+K2FjY291bnQoKTwvdHNwYW4+PC90ZXh0Pjx0ZXh0IHRyYW5zZm9ybT0idHJhbnNsYXRlKCAtNjUuMzUxNTYyNSwgMjUuNSkiIHN0eWxlPSIiPjx0c3BhbiBjbGFzcz0idGl0bGUtcm93IiB4PSIwIiBkeT0iMWVtIiB4bWw6c3BhY2U9InByZXNlcnZlIj4rcGluKCk8L3RzcGFuPjwvdGV4dD48dGV4dCB0cmFuc2Zvcm09InRyYW5zbGF0ZSggLTY1LjM1MTU2MjUsIDQ4LjUpIiBzdHlsZT0iIj48dHNwYW4gY2xhc3M9InRpdGxlLXJvdyIgeD0iMCIgZHk9IjFlbSIgeG1sOnNwYWNlPSJwcmVzZXJ2ZSI+K2NhcmRfbm8oKTwvdHNwYW4+PC90ZXh0Pjx0ZXh0IHRyYW5zZm9ybT0idHJhbnNsYXRlKCAtNjUuMzUxNTYyNSwgNzEuNSkiIHN0eWxlPSIiPjx0c3BhbiBjbGFzcz0idGl0bGUtcm93IiB4PSIwIiBkeT0iMWVtIiB4bWw6c3BhY2U9InByZXNlcnZlIj4rYW1vdW50KCk8L3RzcGFuPjwvdGV4dD48dGV4dCB0cmFuc2Zvcm09InRyYW5zbGF0ZSggLTY1LjM1MTU2MjUsIDk0LjUpIiBzdHlsZT0iIj48dHNwYW4gY2xhc3M9InRpdGxlLXJvdyIgeD0iMCIgZHk9IjFlbSIgeG1sOnNwYWNlPSJwcmVzZXJ2ZSI+K2FjY291bnRfbm8oKTwvdHNwYW4+PC90ZXh0PjwvZz48L2c+PGcgdHJhbnNmb3JtPSJ0cmFuc2xhdGUoNDMwLjYwNTQ2ODc1LCA4ODUuNSkiIGlkPSJjbGFzc2lkLUFUTUNhcmQtNSIgY2xhc3M9Im5vZGUgZGVmYXVsdCI+PHJlY3QgaGVpZ2h0PSI4MSIgd2lkdGg9IjgwLjc2NTYyNSIgeT0iLTQwLjUiIHg9Ii00MC4zODI4MTI1IiBjbGFzcz0ib3V0ZXIgdGl0bGUtc3RhdGUiPjwvcmVjdD48bGluZSB5Mj0iLTkuNSIgeTE9Ii05LjUiIHgyPSI0MC4zODI4MTI1IiB4MT0iLTQwLjM4MjgxMjUiIGNsYXNzPSJkaXZpZGVyIj48L2xpbmU+PGxpbmUgeTI9IjI5LjUiIHkxPSIyOS41IiB4Mj0iNDAuMzgyODEyNSIgeDE9Ii00MC4zODI4MTI1IiBjbGFzcz0iZGl2aWRlciI+PC9saW5lPjxnIGNsYXNzPSJsYWJlbCI+PHRleHQgc3R5bGU9IiI+PHRzcGFuIGNsYXNzPSJ0aXRsZS1yb3ciIHg9IjAiIGR5PSIxZW0iIHhtbDpzcGFjZT0icHJlc2VydmUiPjwvdHNwYW4+PC90ZXh0Pjx0ZXh0IHRyYW5zZm9ybT0idHJhbnNsYXRlKCAtMzIuODgyODEyNSwgLTMzKSIgY2xhc3M9ImNsYXNzVGl0bGUiIHN0eWxlPSIiPjx0c3BhbiBjbGFzcz0idGl0bGUtcm93IiB4PSIwIiBkeT0iMWVtIiB4bWw6c3BhY2U9InByZXNlcnZlIj5BVE1DYXJkPC90c3Bhbj48L3RleHQ+PHRleHQgdHJhbnNmb3JtPSJ0cmFuc2xhdGUoIC0zMi44ODI4MTI1LCAyKSIgc3R5bGU9IiI+PHRzcGFuIGNsYXNzPSJ0aXRsZS1yb3ciIHg9IjAiIGR5PSIxZW0iIHhtbDpzcGFjZT0icHJlc2VydmUiPitGRUU6IGludDwvdHNwYW4+PC90ZXh0PjwvZz48L2c+PGcgdHJhbnNmb3JtPSJ0cmFuc2xhdGUoNTY1LjY2MDE1NjI1LCA4ODUuNSkiIGlkPSJjbGFzc2lkLURlYml0Q2FyZC02IiBjbGFzcz0ibm9kZSBkZWZhdWx0Ij48cmVjdCBoZWlnaHQ9IjgxIiB3aWR0aD0iODkuMzQzNzUiIHk9Ii00MC41IiB4PSItNDQuNjcxODc1IiBjbGFzcz0ib3V0ZXIgdGl0bGUtc3RhdGUiPjwvcmVjdD48bGluZSB5Mj0iLTkuNSIgeTE9Ii05LjUiIHgyPSI0NC42NzE4NzUiIHgxPSItNDQuNjcxODc1IiBjbGFzcz0iZGl2aWRlciI+PC9saW5lPjxsaW5lIHkyPSIyOS41IiB5MT0iMjkuNSIgeDI9IjQ0LjY3MTg3NSIgeDE9Ii00NC42NzE4NzUiIGNsYXNzPSJkaXZpZGVyIj48L2xpbmU+PGcgY2xhc3M9ImxhYmVsIj48dGV4dCBzdHlsZT0iIj48dHNwYW4gY2xhc3M9InRpdGxlLXJvdyIgeD0iMCIgZHk9IjFlbSIgeG1sOnNwYWNlPSJwcmVzZXJ2ZSI+PC90c3Bhbj48L3RleHQ+PHRleHQgdHJhbnNmb3JtPSJ0cmFuc2xhdGUoIC0zNy4xNzE4NzUsIC0zMykiIGNsYXNzPSJjbGFzc1RpdGxlIiBzdHlsZT0iIj48dHNwYW4gY2xhc3M9InRpdGxlLXJvdyIgeD0iMCIgZHk9IjFlbSIgeG1sOnNwYWNlPSJwcmVzZXJ2ZSI+RGViaXRDYXJkPC90c3Bhbj48L3RleHQ+PHRleHQgdHJhbnNmb3JtPSJ0cmFuc2xhdGUoIC0zNy4xNzE4NzUsIDIpIiBzdHlsZT0iIj48dHNwYW4gY2xhc3M9InRpdGxlLXJvdyIgeD0iMCIgZHk9IjFlbSIgeG1sOnNwYWNlPSJwcmVzZXJ2ZSI+K0ZFRTogaW50PC90c3Bhbj48L3RleHQ+PC9nPjwvZz48ZyB0cmFuc2Zvcm09InRyYW5zbGF0ZSg4ODcuNDQ1MzEyNSwgODg1LjUpIiBpZD0iY2xhc3NpZC1BVE0tNyIgY2xhc3M9Im5vZGUgZGVmYXVsdCI+PHJlY3QgaGVpZ2h0PSIyNDIiIHdpZHRoPSI0NTQuMjI2NTYyNSIgeT0iLTEyMSIgeD0iLTIyNy4xMTMyODEyNSIgY2xhc3M9Im91dGVyIHRpdGxlLXN0YXRlIj48L3JlY3Q+PGxpbmUgeTI9Ii05MCIgeTE9Ii05MCIgeDI9IjIyNy4xMTMyODEyNSIgeDE9Ii0yMjcuMTEzMjgxMjUiIGNsYXNzPSJkaXZpZGVyIj48L2xpbmU+PGxpbmUgeTI9Ii0yOCIgeTE9Ii0yOCIgeDI9IjIyNy4xMTMyODEyNSIgeDE9Ii0yMjcuMTEzMjgxMjUiIGNsYXNzPSJkaXZpZGVyIj48L2xpbmU+PGcgY2xhc3M9ImxhYmVsIj48dGV4dCBzdHlsZT0iIj48dHNwYW4gY2xhc3M9InRpdGxlLXJvdyIgeD0iMCIgZHk9IjFlbSIgeG1sOnNwYWNlPSJwcmVzZXJ2ZSI+PC90c3Bhbj48L3RleHQ+PHRleHQgdHJhbnNmb3JtPSJ0cmFuc2xhdGUoIC0xNi4yMDMxMjUsIC0xMTMuNSkiIGNsYXNzPSJjbGFzc1RpdGxlIiBzdHlsZT0iIj48dHNwYW4gY2xhc3M9InRpdGxlLXJvdyIgeD0iMCIgZHk9IjFlbSIgeG1sOnNwYWNlPSJwcmVzZXJ2ZSI+QVRNPC90c3Bhbj48L3RleHQ+PHRleHQgdHJhbnNmb3JtPSJ0cmFuc2xhdGUoIC0yMTkuNjEzMjgxMjUsIC03OC41KSIgc3R5bGU9IiI+PHRzcGFuIGNsYXNzPSJ0aXRsZS1yb3ciIHg9IjAiIGR5PSIxZW0iIHhtbDpzcGFjZT0icHJlc2VydmUiPi1tYWNoaW5lX2lkOiBzdHI8L3RzcGFuPjwvdGV4dD48dGV4dCB0cmFuc2Zvcm09InRyYW5zbGF0ZSggLTIxOS42MTMyODEyNSwgLTU1LjUpIiBzdHlsZT0iIj48dHNwYW4gY2xhc3M9InRpdGxlLXJvdyIgeD0iMCIgZHk9IjFlbSIgeG1sOnNwYWNlPSJwcmVzZXJ2ZSI+LWF0bV9iYWxhbmNlOiBmbG9hdDwvdHNwYW4+PC90ZXh0Pjx0ZXh0IHRyYW5zZm9ybT0idHJhbnNsYXRlKCAtMjE5LjYxMzI4MTI1LCAtMjAuNSkiIHN0eWxlPSIiPjx0c3BhbiBjbGFzcz0idGl0bGUtcm93IiB4PSIwIiBkeT0iMWVtIiB4bWw6c3BhY2U9InByZXNlcnZlIj4rbWFjaGluZV9pZCgpPC90c3Bhbj48L3RleHQ+PHRleHQgdHJhbnNmb3JtPSJ0cmFuc2xhdGUoIC0yMTkuNjEzMjgxMjUsIDIuNSkiIHN0eWxlPSIiPjx0c3BhbiBjbGFzcz0idGl0bGUtcm93IiB4PSIwIiBkeT0iMWVtIiB4bWw6c3BhY2U9InByZXNlcnZlIj4rYXRtX2JhbGFuY2UoKTwvdHNwYW4+PC90ZXh0Pjx0ZXh0IHRyYW5zZm9ybT0idHJhbnNsYXRlKCAtMjE5LjYxMzI4MTI1LCAyNS41KSIgc3R5bGU9IiI+PHRzcGFuIGNsYXNzPSJ0aXRsZS1yb3ciIHg9IjAiIGR5PSIxZW0iIHhtbDpzcGFjZT0icHJlc2VydmUiPitpbnNlcnRfY2FyZChjYXJkOiBDYXJkLCBwaW46IHN0cik8L3RzcGFuPjwvdGV4dD48dGV4dCB0cmFuc2Zvcm09InRyYW5zbGF0ZSggLTIxOS42MTMyODEyNSwgNDguNSkiIHN0eWxlPSIiPjx0c3BhbiBjbGFzcz0idGl0bGUtcm93IiB4PSIwIiBkeT0iMWVtIiB4bWw6c3BhY2U9InByZXNlcnZlIj4rZGVwb3NpdChhY2NvdW50OiBBY2NvdW50LCBhbW91bnQ6IGZsb2F0KTwvdHNwYW4+PC90ZXh0Pjx0ZXh0IHRyYW5zZm9ybT0idHJhbnNsYXRlKCAtMjE5LjYxMzI4MTI1LCA3MS41KSIgc3R5bGU9IiI+PHRzcGFuIGNsYXNzPSJ0aXRsZS1yb3ciIHg9IjAiIGR5PSIxZW0iIHhtbDpzcGFjZT0icHJlc2VydmUiPit3aXRoZHJhdyhhY2NvdW50OiBBY2NvdW50LCBhbW91bnQ6IGZsb2F0KTwvdHNwYW4+PC90ZXh0Pjx0ZXh0IHRyYW5zZm9ybT0idHJhbnNsYXRlKCAtMjE5LjYxMzI4MTI1LCA5NC41KSIgc3R5bGU9IiI+PHRzcGFuIGNsYXNzPSJ0aXRsZS1yb3ciIHg9IjAiIGR5PSIxZW0iIHhtbDpzcGFjZT0icHJlc2VydmUiPit0cmFuc2ZlcihzZW5kZXI6IEFjY291bnQsIHJlY2VpdmVyOiBBY2NvdW50LCBhbW91bnQ6IGZsb2F0KTwvdHNwYW4+PC90ZXh0PjwvZz48L2c+PGcgdHJhbnNmb3JtPSJ0cmFuc2xhdGUoMTAxOC41MDE5NTMxMjUsIDEyMTIpIiBpZD0iY2xhc3NpZC1UcmFuc2FjdGlvbi04IiBjbGFzcz0ibm9kZSBkZWZhdWx0Ij48cmVjdCBoZWlnaHQ9IjE5NiIgd2lkdGg9IjE3Mi40MDYyNSIgeT0iLTk4IiB4PSItODYuMjAzMTI1IiBjbGFzcz0ib3V0ZXIgdGl0bGUtc3RhdGUiPjwvcmVjdD48bGluZSB5Mj0iLTY3IiB5MT0iLTY3IiB4Mj0iODYuMjAzMTI1IiB4MT0iLTg2LjIwMzEyNSIgY2xhc3M9ImRpdmlkZXIiPjwvbGluZT48bGluZSB5Mj0iNjQiIHkxPSI2NCIgeDI9Ijg2LjIwMzEyNSIgeDE9Ii04Ni4yMDMxMjUiIGNsYXNzPSJkaXZpZGVyIj48L2xpbmU+PGcgY2xhc3M9ImxhYmVsIj48dGV4dCBzdHlsZT0iIj48dHNwYW4gY2xhc3M9InRpdGxlLXJvdyIgeD0iMCIgZHk9IjFlbSIgeG1sOnNwYWNlPSJwcmVzZXJ2ZSI+PC90c3Bhbj48L3RleHQ+PHRleHQgdHJhbnNmb3JtPSJ0cmFuc2xhdGUoIC00My4zMzU5Mzc1LCAtOTAuNSkiIGNsYXNzPSJjbGFzc1RpdGxlIiBzdHlsZT0iIj48dHNwYW4gY2xhc3M9InRpdGxlLXJvdyIgeD0iMCIgZHk9IjFlbSIgeG1sOnNwYWNlPSJwcmVzZXJ2ZSI+VHJhbnNhY3Rpb248L3RzcGFuPjwvdGV4dD48dGV4dCB0cmFuc2Zvcm09InRyYW5zbGF0ZSggLTc4LjcwMzEyNSwgLTU1LjUpIiBzdHlsZT0iIj48dHNwYW4gY2xhc3M9InRpdGxlLXJvdyIgeD0iMCIgZHk9IjFlbSIgeG1sOnNwYWNlPSJwcmVzZXJ2ZSI+LXRyYW5zYWN0aW9uX3R5cGU6IHN0cjwvdHNwYW4+PC90ZXh0Pjx0ZXh0IHRyYW5zZm9ybT0idHJhbnNsYXRlKCAtNzguNzAzMTI1LCAtMzIuNSkiIHN0eWxlPSIiPjx0c3BhbiBjbGFzcz0idGl0bGUtcm93IiB4PSIwIiBkeT0iMWVtIiB4bWw6c3BhY2U9InByZXNlcnZlIj4tYW1vdW50OiBmbG9hdDwvdHNwYW4+PC90ZXh0Pjx0ZXh0IHRyYW5zZm9ybT0idHJhbnNsYXRlKCAtNzguNzAzMTI1LCAtOS41KSIgc3R5bGU9IiI+PHRzcGFuIGNsYXNzPSJ0aXRsZS1yb3ciIHg9IjAiIGR5PSIxZW0iIHhtbDpzcGFjZT0icHJlc2VydmUiPi1tYWNoaW5lX2lkOiBzdHI8L3RzcGFuPjwvdGV4dD48dGV4dCB0cmFuc2Zvcm09InRyYW5zbGF0ZSggLTc4LjcwMzEyNSwgMTMuNSkiIHN0eWxlPSIiPjx0c3BhbiBjbGFzcz0idGl0bGUtcm93IiB4PSIwIiBkeT0iMWVtIiB4bWw6c3BhY2U9InByZXNlcnZlIj4tZGVzdGluYXRpb246IHN0cjwvdHNwYW4+PC90ZXh0Pjx0ZXh0IHRyYW5zZm9ybT0idHJhbnNsYXRlKCAtNzguNzAzMTI1LCAzNi41KSIgc3R5bGU9IiI+PHRzcGFuIGNsYXNzPSJ0aXRsZS1yb3ciIHg9IjAiIGR5PSIxZW0iIHhtbDpzcGFjZT0icHJlc2VydmUiPi1zb3VyY2U6IHN0cjwvdHNwYW4+PC90ZXh0Pjx0ZXh0IHRyYW5zZm9ybT0idHJhbnNsYXRlKCAtNzguNzAzMTI1LCA3MS41KSIgc3R5bGU9IiI+PHRzcGFuIGNsYXNzPSJ0aXRsZS1yb3ciIHg9IjAiIGR5PSIxZW0iIHhtbDpzcGFjZT0icHJlc2VydmUiPitfX3N0cl9fKCk8L3RzcGFuPjwvdGV4dD48L2c+PC9nPjxnIHRyYW5zZm9ybT0idHJhbnNsYXRlKDEyODUuNDY2Nzk2ODc1LCA1NDcuNSkiIGlkPSJjbGFzc2lkLVNlbGxlci05IiBjbGFzcz0ibm9kZSBkZWZhdWx0Ij48cmVjdCBoZWlnaHQ9IjI2NSIgd2lkdGg9IjQzMy42MzI4MTI1IiB5PSItMTMyLjUiIHg9Ii0yMTYuODE2NDA2MjUiIGNsYXNzPSJvdXRlciB0aXRsZS1zdGF0ZSI+PC9yZWN0PjxsaW5lIHkyPSItMTAxLjUiIHkxPSItMTAxLjUiIHgyPSIyMTYuODE2NDA2MjUiIHgxPSItMjE2LjgxNjQwNjI1IiBjbGFzcz0iZGl2aWRlciI+PC9saW5lPjxsaW5lIHkyPSItMTYuNSIgeTE9Ii0xNi41IiB4Mj0iMjE2LjgxNjQwNjI1IiB4MT0iLTIxNi44MTY0MDYyNSIgY2xhc3M9ImRpdmlkZXIiPjwvbGluZT48ZyBjbGFzcz0ibGFiZWwiPjx0ZXh0IHN0eWxlPSIiPjx0c3BhbiBjbGFzcz0idGl0bGUtcm93IiB4PSIwIiBkeT0iMWVtIiB4bWw6c3BhY2U9InByZXNlcnZlIj48L3RzcGFuPjwvdGV4dD48dGV4dCB0cmFuc2Zvcm09InRyYW5zbGF0ZSggLTIyLjAwMzkwNjI1LCAtMTI1KSIgY2xhc3M9ImNsYXNzVGl0bGUiIHN0eWxlPSIiPjx0c3BhbiBjbGFzcz0idGl0bGUtcm93IiB4PSIwIiBkeT0iMWVtIiB4bWw6c3BhY2U9InByZXNlcnZlIj5TZWxsZXI8L3RzcGFuPjwvdGV4dD48dGV4dCB0cmFuc2Zvcm09InRyYW5zbGF0ZSggLTIwOS4zMTY0MDYyNSwgLTkwKSIgc3R5bGU9IiI+PHRzcGFuIGNsYXNzPSJ0aXRsZS1yb3ciIHg9IjAiIGR5PSIxZW0iIHhtbDpzcGFjZT0icHJlc2VydmUiPi1zZWxsZXJfaWQ6IHN0cjwvdHNwYW4+PC90ZXh0Pjx0ZXh0IHRyYW5zZm9ybT0idHJhbnNsYXRlKCAtMjA5LjMxNjQwNjI1LCAtNjcpIiBzdHlsZT0iIj48dHNwYW4gY2xhc3M9InRpdGxlLXJvdyIgeD0iMCIgZHk9IjFlbSIgeG1sOnNwYWNlPSJwcmVzZXJ2ZSI+LW5hbWU6IHN0cjwvdHNwYW4+PC90ZXh0Pjx0ZXh0IHRyYW5zZm9ybT0idHJhbnNsYXRlKCAtMjA5LjMxNjQwNjI1LCAtNDQpIiBzdHlsZT0iIj48dHNwYW4gY2xhc3M9InRpdGxlLXJvdyIgeD0iMCIgZHk9IjFlbSIgeG1sOnNwYWNlPSJwcmVzZXJ2ZSI+LWVkYzogbGlzdDwvdHNwYW4+PC90ZXh0Pjx0ZXh0IHRyYW5zZm9ybT0idHJhbnNsYXRlKCAtMjA5LjMxNjQwNjI1LCAtOSkiIHN0eWxlPSIiPjx0c3BhbiBjbGFzcz0idGl0bGUtcm93IiB4PSIwIiBkeT0iMWVtIiB4bWw6c3BhY2U9InByZXNlcnZlIj4rc2VsbGVyX2lkKCk8L3RzcGFuPjwvdGV4dD48dGV4dCB0cmFuc2Zvcm09InRyYW5zbGF0ZSggLTIwOS4zMTY0MDYyNSwgMTQpIiBzdHlsZT0iIj48dHNwYW4gY2xhc3M9InRpdGxlLXJvdyIgeD0iMCIgZHk9IjFlbSIgeG1sOnNwYWNlPSJwcmVzZXJ2ZSI+K25hbWUoKTwvdHNwYW4+PC90ZXh0Pjx0ZXh0IHRyYW5zZm9ybT0idHJhbnNsYXRlKCAtMjA5LjMxNjQwNjI1LCAzNykiIHN0eWxlPSIiPjx0c3BhbiBjbGFzcz0idGl0bGUtcm93IiB4PSIwIiBkeT0iMWVtIiB4bWw6c3BhY2U9InByZXNlcnZlIj4rZWRjKCk8L3RzcGFuPjwvdGV4dD48dGV4dCB0cmFuc2Zvcm09InRyYW5zbGF0ZSggLTIwOS4zMTY0MDYyNSwgNjApIiBzdHlsZT0iIj48dHNwYW4gY2xhc3M9InRpdGxlLXJvdyIgeD0iMCIgZHk9IjFlbSIgeG1sOnNwYWNlPSJwcmVzZXJ2ZSI+K2FkZF9lZGMoZWRjOiBFRENNYWNoaW5lKTwvdHNwYW4+PC90ZXh0Pjx0ZXh0IHRyYW5zZm9ybT0idHJhbnNsYXRlKCAtMjA5LjMxNjQwNjI1LCA4MykiIHN0eWxlPSIiPjx0c3BhbiBjbGFzcz0idGl0bGUtcm93IiB4PSIwIiBkeT0iMWVtIiB4bWw6c3BhY2U9InByZXNlcnZlIj4rc2VhcmNoX2VkY19mcm9tX25vKGVkY19ubzogc3RyKTwvdHNwYW4+PC90ZXh0Pjx0ZXh0IHRyYW5zZm9ybT0idHJhbnNsYXRlKCAtMjA5LjMxNjQwNjI1LCAxMDYpIiBzdHlsZT0iIj48dHNwYW4gY2xhc3M9InRpdGxlLXJvdyIgeD0iMCIgZHk9IjFlbSIgeG1sOnNwYWNlPSJwcmVzZXJ2ZSI+K3BhaWQoY2FyZDogQ2FyZCwgYW1vdW50OiBmbG9hdCwgc2VsbGVyX2FjY291bnQ6IEFjY291bnQpPC90c3Bhbj48L3RleHQ+PC9nPjwvZz48ZyB0cmFuc2Zvcm09InRyYW5zbGF0ZSgxNDAxLjM3NSwgODg1LjUpIiBpZD0iY2xhc3NpZC1FRENNYWNoaW5lLTEwIiBjbGFzcz0ibm9kZSBkZWZhdWx0Ij48cmVjdCBoZWlnaHQ9IjE3MyIgd2lkdGg9IjQzMy42MzI4MTI1IiB5PSItODYuNSIgeD0iLTIxNi44MTY0MDYyNSIgY2xhc3M9Im91dGVyIHRpdGxlLXN0YXRlIj48L3JlY3Q+PGxpbmUgeTI9Ii01NS41IiB5MT0iLTU1LjUiIHgyPSIyMTYuODE2NDA2MjUiIHgxPSItMjE2LjgxNjQwNjI1IiBjbGFzcz0iZGl2aWRlciI+PC9saW5lPjxsaW5lIHkyPSI2LjUiIHkxPSI2LjUiIHgyPSIyMTYuODE2NDA2MjUiIHgxPSItMjE2LjgxNjQwNjI1IiBjbGFzcz0iZGl2aWRlciI+PC9saW5lPjxnIGNsYXNzPSJsYWJlbCI+PHRleHQgc3R5bGU9IiI+PHRzcGFuIGNsYXNzPSJ0aXRsZS1yb3ciIHg9IjAiIGR5PSIxZW0iIHhtbDpzcGFjZT0icHJlc2VydmUiPjwvdHNwYW4+PC90ZXh0Pjx0ZXh0IHRyYW5zZm9ybT0idHJhbnNsYXRlKCAtNDUuMzUxNTYyNSwgLTc5KSIgY2xhc3M9ImNsYXNzVGl0bGUiIHN0eWxlPSIiPjx0c3BhbiBjbGFzcz0idGl0bGUtcm93IiB4PSIwIiBkeT0iMWVtIiB4bWw6c3BhY2U9InByZXNlcnZlIj5FRENNYWNoaW5lPC90c3Bhbj48L3RleHQ+PHRleHQgdHJhbnNmb3JtPSJ0cmFuc2xhdGUoIC0yMDkuMzE2NDA2MjUsIC00NCkiIHN0eWxlPSIiPjx0c3BhbiBjbGFzcz0idGl0bGUtcm93IiB4PSIwIiBkeT0iMWVtIiB4bWw6c3BhY2U9InByZXNlcnZlIj4tZWRjX2lkOiBzdHI8L3RzcGFuPjwvdGV4dD48dGV4dCB0cmFuc2Zvcm09InRyYW5zbGF0ZSggLTIwOS4zMTY0MDYyNSwgLTIxKSIgc3R5bGU9IiI+PHRzcGFuIGNsYXNzPSJ0aXRsZS1yb3ciIHg9IjAiIGR5PSIxZW0iIHhtbDpzcGFjZT0icHJlc2VydmUiPi1zZWxsZXI6IFNlbGxlcjwvdHNwYW4+PC90ZXh0Pjx0ZXh0IHRyYW5zZm9ybT0idHJhbnNsYXRlKCAtMjA5LjMxNjQwNjI1LCAxNCkiIHN0eWxlPSIiPjx0c3BhbiBjbGFzcz0idGl0bGUtcm93IiB4PSIwIiBkeT0iMWVtIiB4bWw6c3BhY2U9InByZXNlcnZlIj4rZWRjX2lkKCk8L3RzcGFuPjwvdGV4dD48dGV4dCB0cmFuc2Zvcm09InRyYW5zbGF0ZSggLTIwOS4zMTY0MDYyNSwgMzcpIiBzdHlsZT0iIj48dHNwYW4gY2xhc3M9InRpdGxlLXJvdyIgeD0iMCIgZHk9IjFlbSIgeG1sOnNwYWNlPSJwcmVzZXJ2ZSI+K3NlbGxlcigpPC90c3Bhbj48L3RleHQ+PHRleHQgdHJhbnNmb3JtPSJ0cmFuc2xhdGUoIC0yMDkuMzE2NDA2MjUsIDYwKSIgc3R5bGU9IiI+PHRzcGFuIGNsYXNzPSJ0aXRsZS1yb3ciIHg9IjAiIGR5PSIxZW0iIHhtbDpzcGFjZT0icHJlc2VydmUiPitwYWlkKGNhcmQ6IENhcmQsIGFtb3VudDogZmxvYXQsIHNlbGxlcl9hY2NvdW50OiBBY2NvdW50KTwvdHNwYW4+PC90ZXh0PjwvZz48L2c+PGcgdHJhbnNmb3JtPSJ0cmFuc2xhdGUoODg3LjQ0NTMxMjUsIDE4Ni41KSIgaWQ9ImNsYXNzaWQtQmFuay0xMSIgY2xhc3M9Im5vZGUgZGVmYXVsdCI+PHJlY3QgaGVpZ2h0PSIzNTciIHdpZHRoPSIzOTIuMDkzNzUiIHk9Ii0xNzguNSIgeD0iLTE5Ni4wNDY4NzUiIGNsYXNzPSJvdXRlciB0aXRsZS1zdGF0ZSI+PC9yZWN0PjxsaW5lIHkyPSItMTQ3LjUiIHkxPSItMTQ3LjUiIHgyPSIxOTYuMDQ2ODc1IiB4MT0iLTE5Ni4wNDY4NzUiIGNsYXNzPSJkaXZpZGVyIj48L2xpbmU+PGxpbmUgeTI9Ii0zOS41IiB5MT0iLTM5LjUiIHgyPSIxOTYuMDQ2ODc1IiB4MT0iLTE5Ni4wNDY4NzUiIGNsYXNzPSJkaXZpZGVyIj48L2xpbmU+PGcgY2xhc3M9ImxhYmVsIj48dGV4dCBzdHlsZT0iIj48dHNwYW4gY2xhc3M9InRpdGxlLXJvdyIgeD0iMCIgZHk9IjFlbSIgeG1sOnNwYWNlPSJwcmVzZXJ2ZSI+PC90c3Bhbj48L3RleHQ+PHRleHQgdHJhbnNmb3JtPSJ0cmFuc2xhdGUoIC0xOC43NDYwOTM3NSwgLTE3MSkiIGNsYXNzPSJjbGFzc1RpdGxlIiBzdHlsZT0iIj48dHNwYW4gY2xhc3M9InRpdGxlLXJvdyIgeD0iMCIgZHk9IjFlbSIgeG1sOnNwYWNlPSJwcmVzZXJ2ZSI+QmFuazwvdHNwYW4+PC90ZXh0Pjx0ZXh0IHRyYW5zZm9ybT0idHJhbnNsYXRlKCAtMTg4LjU0Njg3NSwgLTEzNikiIHN0eWxlPSIiPjx0c3BhbiBjbGFzcz0idGl0bGUtcm93IiB4PSIwIiBkeT0iMWVtIiB4bWw6c3BhY2U9InByZXNlcnZlIj4tbmFtZTogc3RyPC90c3Bhbj48L3RleHQ+PHRleHQgdHJhbnNmb3JtPSJ0cmFuc2xhdGUoIC0xODguNTQ2ODc1LCAtMTEzKSIgc3R5bGU9IiI+PHRzcGFuIGNsYXNzPSJ0aXRsZS1yb3ciIHg9IjAiIGR5PSIxZW0iIHhtbDpzcGFjZT0icHJlc2VydmUiPi11c2VyczogbGlzdDwvdHNwYW4+PC90ZXh0Pjx0ZXh0IHRyYW5zZm9ybT0idHJhbnNsYXRlKCAtMTg4LjU0Njg3NSwgLTkwKSIgc3R5bGU9IiI+PHRzcGFuIGNsYXNzPSJ0aXRsZS1yb3ciIHg9IjAiIGR5PSIxZW0iIHhtbDpzcGFjZT0icHJlc2VydmUiPi1hdG1zOiBsaXN0PC90c3Bhbj48L3RleHQ+PHRleHQgdHJhbnNmb3JtPSJ0cmFuc2xhdGUoIC0xODguNTQ2ODc1LCAtNjcpIiBzdHlsZT0iIj48dHNwYW4gY2xhc3M9InRpdGxlLXJvdyIgeD0iMCIgZHk9IjFlbSIgeG1sOnNwYWNlPSJwcmVzZXJ2ZSI+LXNlbGxlcnM6IGxpc3Q8L3RzcGFuPjwvdGV4dD48dGV4dCB0cmFuc2Zvcm09InRyYW5zbGF0ZSggLTE4OC41NDY4NzUsIC0zMikiIHN0eWxlPSIiPjx0c3BhbiBjbGFzcz0idGl0bGUtcm93IiB4PSIwIiBkeT0iMWVtIiB4bWw6c3BhY2U9InByZXNlcnZlIj4rbmFtZSgpPC90c3Bhbj48L3RleHQ+PHRleHQgdHJhbnNmb3JtPSJ0cmFuc2xhdGUoIC0xODguNTQ2ODc1LCAtOSkiIHN0eWxlPSIiPjx0c3BhbiBjbGFzcz0idGl0bGUtcm93IiB4PSIwIiBkeT0iMWVtIiB4bWw6c3BhY2U9InByZXNlcnZlIj4rYWRkX3VzZXIodXNlcjogVXNlcik8L3RzcGFuPjwvdGV4dD48dGV4dCB0cmFuc2Zvcm09InRyYW5zbGF0ZSggLTE4OC41NDY4NzUsIDE0KSIgc3R5bGU9IiI+PHRzcGFuIGNsYXNzPSJ0aXRsZS1yb3ciIHg9IjAiIGR5PSIxZW0iIHhtbDpzcGFjZT0icHJlc2VydmUiPithZGRfYXRtKGF0bTogQVRNKTwvdHNwYW4+PC90ZXh0Pjx0ZXh0IHRyYW5zZm9ybT0idHJhbnNsYXRlKCAtMTg4LjU0Njg3NSwgMzcpIiBzdHlsZT0iIj48dHNwYW4gY2xhc3M9InRpdGxlLXJvdyIgeD0iMCIgZHk9IjFlbSIgeG1sOnNwYWNlPSJwcmVzZXJ2ZSI+K2FkZF9zZWxsZXIoc2VsbGVyOiBTZWxsZXIpPC90c3Bhbj48L3RleHQ+PHRleHQgdHJhbnNmb3JtPSJ0cmFuc2xhdGUoIC0xODguNTQ2ODc1LCA2MCkiIHN0eWxlPSIiPjx0c3BhbiBjbGFzcz0idGl0bGUtcm93IiB4PSIwIiBkeT0iMWVtIiB4bWw6c3BhY2U9InByZXNlcnZlIj4rc2VhcmNoX3VzZXJfZnJvbV9pZChjaXRpemVuX2lkOiBzdHIpPC90c3Bhbj48L3RleHQ+PHRleHQgdHJhbnNmb3JtPSJ0cmFuc2xhdGUoIC0xODguNTQ2ODc1LCA4MykiIHN0eWxlPSIiPjx0c3BhbiBjbGFzcz0idGl0bGUtcm93IiB4PSIwIiBkeT0iMWVtIiB4bWw6c3BhY2U9InByZXNlcnZlIj4rc2VhcmNoX2F0bV9tYWNoaW5lKG1hY2hpbmVfaWQ6IHN0cik8L3RzcGFuPjwvdGV4dD48dGV4dCB0cmFuc2Zvcm09InRyYW5zbGF0ZSggLTE4OC41NDY4NzUsIDEwNikiIHN0eWxlPSIiPjx0c3BhbiBjbGFzcz0idGl0bGUtcm93IiB4PSIwIiBkeT0iMWVtIiB4bWw6c3BhY2U9InByZXNlcnZlIj4rc2VhcmNoX2FjY291bnRfZnJvbV9jYXJkKGNhcmRfbm86IHN0cik8L3RzcGFuPjwvdGV4dD48dGV4dCB0cmFuc2Zvcm09InRyYW5zbGF0ZSggLTE4OC41NDY4NzUsIDEyOSkiIHN0eWxlPSIiPjx0c3BhbiBjbGFzcz0idGl0bGUtcm93IiB4PSIwIiBkeT0iMWVtIiB4bWw6c3BhY2U9InByZXNlcnZlIj4rc2VhcmNoX2FjY291bnRfZnJvbV9hY2NvdW50X25vKGFjY291bnRfbm86IHN0cik8L3RzcGFuPjwvdGV4dD48dGV4dCB0cmFuc2Zvcm09InRyYW5zbGF0ZSggLTE4OC41NDY4NzUsIDE1MikiIHN0eWxlPSIiPjx0c3BhbiBjbGFzcz0idGl0bGUtcm93IiB4PSIwIiBkeT0iMWVtIiB4bWw6c3BhY2U9InByZXNlcnZlIj4rc2VhcmNoX3NlbGxlcihuYW1lOiBzdHIpPC90c3Bhbj48L3RleHQ+PC9nPjwvZz48L2c+PC9nPjwvZz48L3N2Zz4=;" vertex="1" parent="1">
                        <mxGeometry x="-553" y="3287" width="1934" height="1610" as="geometry"/>
                    </mxCell>
                </UserObject>
            </root>
        </mxGraphModel>
    </diagram>
</mxfile>